<svg width="65" height="64" viewBox="0 0 65 64" fill="none" xmlns="http://www.w3.org/2000/svg">
<rect x="0.5" width="64" height="64" rx="32" fill="white"/>
<path d="M24.0625 28.668C22.9109 28.6765 22.218 28.7118 21.6661 28.858C19.154 29.5231 17.4342 31.7745 17.5019 34.3091C17.5215 35.0433 17.801 35.9506 18.36 37.7655C19.7052 42.133 21.966 45.9245 27.0307 46.8341C27.9617 47.0013 29.0093 47.0013 31.1046 47.0013H33.8954C35.9906 47.0013 37.0382 47.0013 37.9692 46.8341C43.0339 45.9245 45.2947 42.133 46.6399 37.7655C47.1989 35.9506 47.4784 35.0433 47.4981 34.3091C47.5657 31.7745 45.8459 29.5231 43.3339 28.858C42.7819 28.7118 42.0891 28.6765 40.9376 28.668" stroke="#197FF2" stroke-width="3" stroke-linecap="round"/>
<path d="M32.4949 17V35.3333M32.4949 17C33.2754 17 33.8687 17.7302 35.0555 19.1905L36.6615 21.1667M32.4949 17C31.7142 17 31.1209 17.7302 29.934 19.1905L28.3281 21.1667" stroke="#197FF2" stroke-width="3" stroke-linecap="round" stroke-linejoin="round"/>
</svg>
