<svg width="25" height="24" viewBox="0 0 25 24" fill="none" xmlns="http://www.w3.org/2000/svg">
<path d="M20.5682 12.999C22.2251 15.8688 21.2419 19.5383 18.3721 21.1952C15.5023 22.8521 11.8328 21.8688 10.1759 18.999M20.5682 12.999C18.9114 10.1293 15.2419 9.14604 12.3721 10.8029C9.50234 12.4598 8.51909 16.1293 10.1759 18.999M20.5682 12.999L10.1759 18.999" stroke="#818499" stroke-width="2"/>
<path d="M10.4178 5.54203L15.5028 2.5374C17.375 1.43112 19.769 2.08763 20.8499 4.00376C21.7183 5.54315 21.475 7.4272 20.375 8.6822M10.4178 5.54203L5.33285 8.54667C3.46063 9.65294 2.81915 12.1031 3.90008 14.0192C4.54999 15.1713 5.67456 15.868 6.875 16M10.4178 5.54203L11.875 8" stroke="#818499" stroke-width="2" stroke-linecap="round" stroke-linejoin="round"/>
</svg>
