<svg width="65" height="64" viewBox="0 0 65 64" fill="none" xmlns="http://www.w3.org/2000/svg">
<rect x="0.5" width="64" height="64" rx="32" fill="white"/>
<path d="M20 32C20 26.5209 20 23.7813 21.5133 21.9374C21.7903 21.5998 22.0998 21.2903 22.4374 21.0133C24.2813 19.5 27.0209 19.5 32.5 19.5C37.9792 19.5 40.7187 19.5 42.5627 21.0133C42.9002 21.2903 43.2097 21.5998 43.4867 21.9374C45 23.7813 45 26.5209 45 32C45 37.4792 45 40.2187 43.4867 42.0627C43.2097 42.4002 42.9002 42.7097 42.5627 42.9867C40.7187 44.5 37.9792 44.5 32.5 44.5C27.0209 44.5 24.2813 44.5 22.4374 42.9867C22.0998 42.7097 21.7903 42.4002 21.5133 42.0627C20 40.2187 20 37.4792 20 32Z" stroke="#197FF2" stroke-width="3"/>
<path d="M27.5 48.668H37.5" stroke="#197FF2" stroke-width="3" stroke-linecap="round"/>
<path d="M27.5 15.334H37.5" stroke="#197FF2" stroke-width="3" stroke-linecap="round"/>
<path d="M28.1521 27.5523C29.7164 26.6385 31.0817 27.0067 31.9019 27.5933C32.2382 27.8339 32.4062 27.9541 32.5052 27.9541C32.6042 27.9541 32.7722 27.8339 33.1086 27.5933C33.9287 27.0067 35.2941 26.6385 36.8584 27.5523C38.9114 28.7517 39.3759 32.7083 34.6406 36.0463C33.7386 36.6822 33.2876 37 32.5052 37C31.7229 37 31.2719 36.6822 30.3699 36.0463C25.6346 32.7083 26.0991 28.7517 28.1521 27.5523Z" stroke="#197FF2" stroke-width="3" stroke-linecap="round"/>
</svg>
