<svg width="65" height="64" viewBox="0 0 65 64" fill="none" xmlns="http://www.w3.org/2000/svg">
<rect x="0.5" width="64" height="64" rx="32" fill="white"/>
<path d="M41.6241 27.0184C41.6365 27.0184 41.649 27.0184 41.6615 27.0184C45.8036 27.0184 49.1615 30.3823 49.1615 34.5322C49.1615 38.3997 46.2448 41.5847 42.4948 42M41.6241 27.0184C41.6488 26.7434 41.6615 26.4649 41.6615 26.1835C41.6615 21.1116 37.5575 17 32.4948 17C27.7002 17 23.7653 20.6878 23.3622 25.3865M41.6241 27.0184C41.4536 28.9127 40.7091 30.641 39.5661 32.0275M23.3622 25.3865C19.1348 25.7896 15.8281 29.3565 15.8281 33.6972C15.8281 37.7362 18.6911 41.1053 22.4948 41.8788M23.3622 25.3865C23.6252 25.3615 23.8918 25.3486 24.1615 25.3486C26.0378 25.3486 27.7694 25.9699 29.1623 27.0184" stroke="#197FF2" stroke-width="3" stroke-linecap="round" stroke-linejoin="round"/>
<path d="M32.4948 33.668V47.0013M32.4948 33.668C31.3278 33.668 29.1473 36.9918 28.3281 37.8346M32.4948 33.668C33.6618 33.668 35.8423 36.9918 36.6615 37.8346" stroke="#197FF2" stroke-width="3" stroke-linecap="round" stroke-linejoin="round"/>
</svg>
