<svg width="48" height="48" viewBox="0 0 48 48" fill="none" xmlns="http://www.w3.org/2000/svg">
<rect width="48" height="48" rx="24" fill="#F5F6FA"/>
<path d="M29 24C29 26.7614 26.7614 29 24 29C21.2386 29 19 26.7614 19 24C19 21.2386 21.2386 19 24 19" stroke="#197FF2" stroke-width="1.5" stroke-linecap="round"/>
<path d="M26 14.2C25.3538 14.0689 24.6849 14 24 14C18.4771 14 14 18.4771 14 24C14 29.5228 18.4771 34 24 34C29.5228 34 34 29.5228 34 24C34 23.3151 33.9311 22.6462 33.8 22" stroke="#197FF2" stroke-width="1.5" stroke-linecap="round"/>
<path d="M24.0312 23.9624L28.5842 19.4095M31.7414 16.3445L31.1882 14.3574C31.0863 14.03 30.6923 13.8995 30.4268 14.1165C28.9907 15.2901 27.4263 16.8708 28.7039 19.3641C31.278 20.5644 32.7476 18.9457 33.8743 17.5852C34.0985 17.3145 33.9633 16.9076 33.6257 16.8099L31.7414 16.3445Z" stroke="#197FF2" stroke-width="1.5" stroke-linecap="round" stroke-linejoin="round"/>
</svg>
