<svg width="65" height="64" viewBox="0 0 65 64" fill="none" xmlns="http://www.w3.org/2000/svg">
<rect x="0.5" width="64" height="64" rx="32" fill="white"/>
<path d="M33.9734 23.693L41.9282 25.8124M32.2682 30.021L36.2455 31.0807M32.466 41.9427L34.057 42.3667C38.5569 43.5655 40.8069 44.165 42.5794 43.1475C44.3519 42.1299 44.9549 39.8925 46.1605 35.418L47.8657 29.09C49.0715 24.6154 49.6744 22.3782 48.651 20.6156C47.6277 18.8531 45.3777 18.2536 40.8777 17.0547L39.2867 16.6308C34.7869 15.4318 32.5369 14.8323 30.7644 15.8499C28.9918 16.8675 28.3889 19.1048 27.1832 23.5794L25.478 29.9074C24.2722 34.3819 23.6693 36.6192 24.6927 38.3817C25.7161 40.1444 27.9661 40.7439 32.466 41.9427Z" stroke="#197FF2" stroke-width="3" stroke-linecap="round"/>
<path d="M32.4948 46.9099L30.9076 47.342C26.4182 48.5645 24.1735 49.1757 22.4051 48.1382C20.6367 47.1007 20.0353 44.8195 18.8323 40.2572L17.1312 33.805C15.9282 29.2427 15.3268 26.9615 16.3477 25.1644C17.2309 23.6098 19.1615 23.6664 21.6615 23.6662" stroke="#197FF2" stroke-width="3" stroke-linecap="round"/>
</svg>
