<svg width="40" height="40" viewBox="0 0 40 40" fill="none" xmlns="http://www.w3.org/2000/svg">
<rect width="40" height="40" rx="20" fill="#F5F6FA"/>
<path d="M22.0885 25.8327H20.4219C18.0648 25.8327 16.8863 25.8327 16.1541 25.1004C15.4219 24.3682 15.4219 23.1897 15.4219 20.8327V16.666C15.4219 14.309 15.4219 13.1305 16.1541 12.3982C16.8863 11.666 18.0648 11.666 20.4219 11.666H21.5412C22.2224 11.666 22.563 11.666 22.8694 11.7929C23.1756 11.9197 23.4164 12.1606 23.8982 12.6423L26.1122 14.8564C26.5939 15.3381 26.8348 15.5789 26.9617 15.8852C27.0885 16.1915 27.0885 16.5321 27.0885 17.2134V20.8327C27.0885 23.1897 27.0885 24.3682 26.3563 25.1004C25.6241 25.8327 24.4455 25.8327 22.0885 25.8327Z" stroke="#197FF2" stroke-width="1.5" stroke-linecap="round" stroke-linejoin="round"/>
<path d="M22.5 12.083V12.9163C22.5 14.4877 22.5 15.2734 22.9882 15.7615C23.4763 16.2497 24.262 16.2497 25.8333 16.2497H26.6667" stroke="#197FF2" stroke-width="1.5" stroke-linecap="round" stroke-linejoin="round"/>
<path d="M15.4219 14.166C14.0412 14.166 12.9219 15.2853 12.9219 16.666V23.3327C12.9219 25.6898 12.9219 26.8683 13.6541 27.6004C14.3863 28.3327 15.5648 28.3327 17.9219 28.3327H22.0889C23.4695 28.3327 24.5889 27.2133 24.5889 25.8327" stroke="#197FF2" stroke-width="1.5" stroke-linecap="round" stroke-linejoin="round"/>
<path d="M18.3281 19.166H21.6615M18.3281 22.4993H24.1615" stroke="#197FF2" stroke-width="1.5" stroke-linecap="round" stroke-linejoin="round"/>
</svg>
