<svg width="65" height="64" viewBox="0 0 65 64" fill="none" xmlns="http://www.w3.org/2000/svg">
<rect x="0.5" width="64" height="64" rx="32" fill="white"/>
<path d="M25 44.5013C25 42.892 25.5476 41.264 26.8849 40.3686C28.4887 39.2948 30.4207 38.668 32.5 38.668C34.5793 38.668 36.5113 39.2948 38.1152 40.3686C39.4525 41.264 40 42.892 40 44.5013" stroke="#197FF2" stroke-width="3" stroke-linecap="round" stroke-linejoin="round"/>
<path d="M32.4948 34.5013C34.796 34.5013 36.6615 32.6358 36.6615 30.3346C36.6615 28.0334 34.796 26.168 32.4948 26.168C30.1936 26.168 28.3281 28.0334 28.3281 30.3346C28.3281 32.6358 30.1936 34.5013 32.4948 34.5013Z" stroke="#197FF2" stroke-width="3" stroke-linecap="round" stroke-linejoin="round"/>
<path d="M41.6719 30.332C43.522 30.332 45.241 30.9602 46.6675 32.036C47.8767 32.948 48.3385 34.4905 48.3385 36.005V36.1654" stroke="#197FF2" stroke-width="3" stroke-linecap="round" stroke-linejoin="round"/>
<path d="M41.6615 26.1667C43.5024 26.1667 44.9948 24.6743 44.9948 22.8333C44.9948 20.9924 43.5024 19.5 41.6615 19.5C39.8205 19.5 38.3281 20.9924 38.3281 22.8333C38.3281 24.6743 39.8205 26.1667 41.6615 26.1667Z" stroke="#197FF2" stroke-width="3" stroke-linecap="round" stroke-linejoin="round"/>
<path d="M23.3385 30.332C21.4883 30.332 19.7693 30.9602 18.3428 32.036C17.1336 32.948 16.6719 34.4905 16.6719 36.005V36.1654" stroke="#197FF2" stroke-width="3" stroke-linecap="round" stroke-linejoin="round"/>
<path d="M23.3333 26.1667C25.1743 26.1667 26.6667 24.6743 26.6667 22.8333C26.6667 20.9924 25.1743 19.5 23.3333 19.5C21.4924 19.5 20 20.9924 20 22.8333C20 24.6743 21.4924 26.1667 23.3333 26.1667Z" stroke="#197FF2" stroke-width="3" stroke-linecap="round" stroke-linejoin="round"/>
</svg>
