<svg width="25" height="24" viewBox="0 0 25 24" fill="none" xmlns="http://www.w3.org/2000/svg">
<path d="M8.89372 8.49708C10.2345 7.67461 11.4048 8.00606 12.1078 8.53401C12.3961 8.75048 12.5402 8.85871 12.625 8.85871C12.7098 8.85871 12.8539 8.75048 13.1422 8.53401C13.8452 8.00606 15.0155 7.67461 16.3563 8.49708C18.116 9.57647 18.5141 13.1374 14.4552 16.1417C13.6821 16.7139 13.2956 17 12.625 17C11.9544 17 11.5679 16.7139 10.7948 16.1417C6.73586 13.1374 7.13403 9.57647 8.89372 8.49708Z" stroke="#818499" stroke-width="2" stroke-linecap="round"/>
<path d="M22.625 12C22.625 6.47715 18.1478 2 12.625 2C7.10215 2 2.625 6.47715 2.625 12C2.625 17.5228 7.10215 22 12.625 22C18.1478 22 22.625 17.5228 22.625 12Z" stroke="#818499" stroke-width="2"/>
</svg>
