<svg width="25" height="24" viewBox="0 0 25 24" fill="none" xmlns="http://www.w3.org/2000/svg">
<path d="M4.44302 19.682C3.125 18.364 3.125 16.2426 3.125 12C3.125 7.75736 3.125 5.63604 4.44302 4.31802C5.76104 3 7.88236 3 12.125 3C16.3676 3 18.489 3 19.807 4.31802C21.125 5.63604 21.125 7.75736 21.125 12C21.125 16.2426 21.125 18.364 19.807 19.682C18.489 21 16.3676 21 12.125 21C7.88236 21 5.76104 21 4.44302 19.682Z" stroke="#818499" stroke-width="2" stroke-linecap="round" stroke-linejoin="round"/>
<path d="M6.125 12H8.625L10.625 8L13.625 16L15.625 12H18.125" stroke="#818499" stroke-width="2" stroke-linecap="round" stroke-linejoin="round"/>
</svg>
