<svg width="116" height="132" viewBox="0 0 116 132" fill="none" xmlns="http://www.w3.org/2000/svg">
<path fill-rule="evenodd" clip-rule="evenodd" d="M51.4259 1.76152C55.494 -0.587173 60.506 -0.587175 64.5741 1.76152L109.426 27.657C113.494 30.0057 116 34.3462 116 39.0435V90.8346C116 95.5319 113.494 99.8724 109.426 102.221L64.5741 128.117C60.506 130.465 55.494 130.465 51.4259 128.117L6.57399 102.221C2.50599 99.8724 0 95.5319 0 90.8346V39.0435C0 34.3462 2.50599 30.0057 6.57399 27.657L51.4259 1.76152ZM12.4095 87.8555C12.6161 85.794 12.8141 83.7474 13.0035 81.7158C13.2101 79.6948 13.4081 77.6888 13.5975 75.6977L13.959 71.7859C14.1656 69.7244 14.3722 67.6426 14.5789 65.5405C14.7855 63.4385 14.9835 61.3513 15.1729 59.2791L22.3783 63.7625C22.9637 65.8099 23.5491 67.8775 24.1345 69.9654C24.7199 72.0533 25.2967 74.1055 25.8648 76.1218L29.2222 88.127L29.7387 88.4484L33.0445 80.5892C33.6299 79.25 34.2066 77.9056 34.7748 76.5557C35.343 75.2059 35.9112 73.8661 36.4793 72.5366L43.5299 76.9236C43.7365 79.2016 43.9431 81.5405 44.1497 83.9403C44.3735 86.3507 44.5887 88.7051 44.7953 91.0035L45.2085 95.4886C45.3979 97.6343 45.5959 99.8462 45.8025 102.124C46.0092 104.402 46.2158 106.701 46.4224 109.019L40.2499 105.179C40.0778 103.023 39.897 100.853 39.7076 98.6664C39.5354 96.4909 39.3546 94.3303 39.1652 92.1846L38.4679 83.9334L37.9773 83.6281L35.4205 90.3412L33.6126 95.1173C33.01 96.7093 32.4074 98.3115 31.8048 99.9238L27.1561 97.0313C26.5191 94.6476 25.8821 92.2843 25.245 89.9411C24.6252 87.6087 24.0054 85.2865 23.3855 82.9744L20.6738 72.8614L20.1831 72.5561L19.4858 79.7874L18.9176 85.6999L18.3495 91.5516L12.4095 87.8555ZM78.9256 103.898C80.1656 103.901 81.5747 103.412 83.1529 102.43C84.5245 101.576 85.7457 100.562 86.8167 99.3867C87.9064 98.1776 88.8458 96.9513 89.6349 95.708C90.424 94.4424 91.0816 93.2366 91.6077 92.0905L92.1995 91.7223L92.6223 95.7743L98.9633 91.8288V86.4183V81.4725V77.8213V73.5062V69.5563C98.9633 66.8123 98.5312 64.8572 97.667 63.6911C96.8027 62.5028 95.5533 62.03 93.9187 62.2726C92.3029 62.4813 90.3489 63.2988 88.0567 64.7251C86.873 65.4616 85.7176 66.258 84.5902 67.1144C83.4817 67.9369 82.4108 68.8024 81.3774 69.7109C80.3441 70.5973 79.3859 71.4702 78.5028 72.3294C77.6385 73.177 76.8588 73.972 76.1637 74.7143L76.5019 81.8395C77.4225 80.7577 78.3243 79.7651 79.2074 78.8616C80.0904 77.9359 80.9359 77.1 81.7438 76.3539C82.5705 75.5961 83.3502 74.9339 84.083 74.3674C84.8345 73.767 85.5297 73.268 86.1685 72.8705C87.3709 72.1223 88.4325 71.6278 89.3531 71.3869C90.2737 71.1238 90.9783 71.2608 91.4668 71.7977C91.9741 72.323 92.1995 73.3776 92.1432 74.9617L84.1111 81.3535C83.0026 82.2424 81.9035 83.2472 80.8138 84.3679C79.7428 85.4768 78.7565 86.7212 77.8546 88.1011C76.9716 89.4472 76.2576 90.9315 75.7127 92.554C75.1679 94.1544 74.8954 95.8729 74.8954 97.7096C74.8954 99.7896 75.2524 101.349 75.9664 102.387C76.6991 103.392 77.6855 103.896 78.9256 103.898ZM88.0849 92.0918C87.3146 93.0137 86.5348 93.7201 85.7457 94.2111C84.7875 94.8074 83.9327 95.0516 83.1811 94.9439C82.4484 94.8024 82.082 94.0124 82.082 92.574C82.082 91.711 82.2323 90.854 82.5329 90.0031C82.8335 89.1522 83.2563 88.347 83.8011 87.5876C84.3648 86.8164 85.0506 86.091 85.8585 85.4112C87.2864 84.2129 88.3949 83.2687 89.184 82.5786C89.9731 81.8884 90.5649 81.3431 90.9595 80.9427C91.3728 80.5085 91.7016 80.1158 91.9459 79.7647V84.976C91.4762 86.3747 90.9031 87.6828 90.2268 88.9003C89.5692 90.1061 88.8552 91.1699 88.0849 92.0918ZM9.87292 32.6801C8.78861 33.3148 8.7886 34.8821 9.87292 35.5168L53.0059 60.7655C56.0828 62.5667 59.8923 62.5667 62.9691 60.7655L106.102 35.5168C107.186 34.8821 107.186 33.3148 106.102 32.6801L62.9691 7.43132C59.8923 5.63021 56.0828 5.63021 53.0059 7.43132L9.87292 32.6801Z" fill="url(#paint0_radial_221_3293)"/>
<path opacity="0.15" fill-rule="evenodd" clip-rule="evenodd" d="M60.9422 60.4189L60.9422 131.912H56.0117L56.0117 60.4189H60.9422Z" fill="url(#paint1_linear_221_3293)"/>
<path d="M43.7753 42.4436C78.5613 51.3326 92.056 29.2281 66.9977 27.1162C63.7486 10.3563 30.3621 19.1996 43.7753 42.4436Z" fill="white"/>
<path d="M43.7753 42.4436C78.5613 51.3326 92.056 29.2281 66.9977 27.1162C63.7486 10.3563 30.3621 19.1996 43.7753 42.4436Z" fill="url(#paint2_radial_221_3293)"/>
<defs>
<radialGradient id="paint0_radial_221_3293" cx="0" cy="0" r="1" gradientUnits="userSpaceOnUse" gradientTransform="translate(57.9999 28.5618) rotate(90) scale(105.448 91.6778)">
<stop offset="0.75" stop-color="white"/>
<stop offset="1" stop-color="white" stop-opacity="0.3"/>
</radialGradient>
<linearGradient id="paint1_linear_221_3293" x1="60.9742" y1="60.419" x2="60.9742" y2="131.912" gradientUnits="userSpaceOnUse">
<stop stop-color="#197FF2" stop-opacity="0"/>
<stop offset="0.51" stop-color="#197FF2"/>
<stop offset="1" stop-color="#197FF2" stop-opacity="0"/>
</linearGradient>
<radialGradient id="paint2_radial_221_3293" cx="0" cy="0" r="1" gradientUnits="userSpaceOnUse" gradientTransform="translate(56.7891 33.8129) rotate(146.113) scale(15.5777 16.1984)">
<stop offset="0.456111" stop-color="#FF6065"/>
<stop offset="1" stop-color="#FF6065" stop-opacity="0.8"/>
</radialGradient>
</defs>
</svg>
