<svg width="20" height="20" viewBox="0 0 20 20" fill="none" xmlns="http://www.w3.org/2000/svg">
<path d="M7.5 10.8337H8.16693C8.692 10.8337 8.9545 10.8337 9.16542 10.9581C9.37642 11.0826 9.49383 11.3067 9.72858 11.755L10.9921 14.167L12.7381 9.16699L14.0015 11.579C14.2363 12.0272 14.3537 12.2514 14.5647 12.3759C14.7757 12.5003 15.0382 12.5003 15.5632 12.5003H16.6667" stroke="#16B2D9" stroke-width="1.5" stroke-linecap="round" stroke-linejoin="round"/>
<path d="M17.0846 10.0003C16.4446 7.01316 13.9377 4.19925 12.1047 2.47717C10.9549 1.39693 9.2013 1.39693 8.05146 2.47717C5.93431 4.46622 2.91797 7.91188 2.91797 11.3987C2.91797 14.8173 5.62935 18.3337 10.0781 18.3337C12.9056 18.3337 15.0312 16.9132 16.205 15.0003" stroke="#16B2D9" stroke-width="1.5" stroke-linecap="round"/>
</svg>
