<svg width="48" height="48" viewBox="0 0 48 48" fill="none" xmlns="http://www.w3.org/2000/svg">
<rect width="48" height="48" rx="24" fill="#F5F6FA"/>
<path d="M21 25H21.8003C22.4304 25 22.7454 25 22.9985 25.1493C23.2517 25.2987 23.3926 25.5677 23.6743 26.1056L25.1905 29L27.2857 23L28.8018 25.8944C29.0836 26.4323 29.2245 26.7013 29.4777 26.8507C29.7308 27 30.0458 27 30.6759 27H32" stroke="#197FF2" stroke-width="1.5" stroke-linecap="round" stroke-linejoin="round"/>
<path d="M32.5 24C31.732 20.4154 28.7237 17.0387 26.5241 14.9722C25.1443 13.6759 23.04 13.6759 21.6602 14.9722C19.1196 17.3591 15.5 21.4939 15.5 25.678C15.5 29.7804 18.7537 34 24.0921 34C27.4851 34 30.0359 32.2955 31.4444 30" stroke="#197FF2" stroke-width="1.5" stroke-linecap="round"/>
</svg>
