<svg width="57" height="64" viewBox="0 0 57 64" fill="none" xmlns="http://www.w3.org/2000/svg">
<path fill-rule="evenodd" clip-rule="evenodd" d="M25.3264 0.850366C27.2902 -0.283455 29.7098 -0.283456 31.6736 0.850365L53.3263 13.3515C55.2902 14.4853 56.5 16.5807 56.5 18.8484V43.8505C56.5 46.1182 55.2902 48.2136 53.3263 49.3475L31.6736 61.8486C29.7098 62.9824 27.2902 62.9824 25.3264 61.8486L3.67367 49.3475C1.7098 48.2136 0.5 46.1182 0.5 43.8505V18.8484C0.5 16.5807 1.70979 14.4853 3.67366 13.3515L25.3264 0.850366ZM5.26773 15.7767C4.74427 16.0832 4.74427 16.8398 5.26773 17.1462L26.0906 29.3351C27.576 30.2046 29.415 30.2046 30.9004 29.3351L51.7232 17.1462C52.2467 16.8398 52.2467 16.0832 51.7232 15.7767L30.9004 3.58785C29.415 2.71837 27.576 2.71837 26.0906 3.58785L5.26773 15.7767Z" fill="url(#paint0_radial_852_12375)"/>
<path fill-rule="evenodd" clip-rule="evenodd" d="M25.3264 0.850366C27.2902 -0.283455 29.7098 -0.283456 31.6736 0.850365L53.3263 13.3515C55.2902 14.4853 56.5 16.5807 56.5 18.8484V43.8505C56.5 46.1182 55.2902 48.2136 53.3263 49.3475L31.6736 61.8486C29.7098 62.9824 27.2902 62.9824 25.3264 61.8486L3.67367 49.3475C1.7098 48.2136 0.5 46.1182 0.5 43.8505V18.8484C0.5 16.5807 1.70979 14.4853 3.67366 13.3515L25.3264 0.850366ZM5.26773 15.7767C4.74427 16.0832 4.74427 16.8398 5.26773 17.1462L26.0906 29.3351C27.576 30.2046 29.415 30.2046 30.9004 29.3351L51.7232 17.1462C52.2467 16.8398 52.2467 16.0832 51.7232 15.7767L30.9004 3.58785C29.415 2.71837 27.576 2.71837 26.0906 3.58785L5.26773 15.7767Z" fill="url(#paint1_radial_852_12375)"/>
<g opacity="0.15">
<path fill-rule="evenodd" clip-rule="evenodd" d="M29.9193 29.168L29.9193 63.6812H27.5391L27.5391 29.168H29.9193Z" fill="url(#paint2_linear_852_12375)"/>
<path fill-rule="evenodd" clip-rule="evenodd" d="M29.9193 29.168L29.9193 63.6812H27.5391L27.5391 29.168H29.9193Z" fill="url(#paint3_linear_852_12375)"/>
</g>
<path fill-rule="evenodd" clip-rule="evenodd" d="M5.2676 15.7766C4.74413 16.083 4.74413 16.8396 5.2676 17.146L26.0905 29.3349C27.5758 30.2044 29.4149 30.2044 30.9002 29.3349L51.7231 17.146C52.2466 16.8396 52.2466 16.083 51.7231 15.7766L30.9002 3.58765C29.4149 2.71818 27.5758 2.71818 26.0905 3.58765L5.2676 15.7766ZM21.6346 20.4896C38.4278 24.7808 44.9425 14.1098 32.8454 13.0903C31.2768 4.99939 15.1592 9.26853 21.6346 20.4896Z" fill="white"/>
<path d="M21.6383 20.4894C38.4315 24.7806 44.9462 14.1095 32.8491 13.09C31.2806 4.99916 15.163 9.26829 21.6383 20.4894Z" fill="white"/>
<path d="M21.6383 20.4894C38.4315 24.7806 44.9462 14.1095 32.8491 13.09C31.2806 4.99916 15.163 9.26829 21.6383 20.4894Z" fill="url(#paint4_radial_852_12375)"/>
<path d="M6.49219 42.33C6.59193 41.3348 6.68752 40.3468 6.77895 39.366C6.87869 38.3904 6.97427 37.422 7.0657 36.4608L7.24025 34.5723C7.33999 33.5771 7.43974 32.5722 7.53948 31.5574C7.63922 30.5426 7.73481 29.535 7.82624 28.5347L11.3047 30.699C11.5873 31.6874 11.8699 32.6856 12.1525 33.6935C12.4352 34.7014 12.7136 35.6921 12.9879 36.6655L14.6087 42.461L14.8581 42.6162L16.4539 38.8221C16.7365 38.1757 17.015 37.5266 17.2893 36.875C17.5636 36.2233 17.8378 35.5766 18.1121 34.9347L21.5158 37.0526C21.6156 38.1523 21.7153 39.2814 21.8151 40.4399C21.9231 41.6035 22.027 42.7401 22.1268 43.8497L22.3262 46.0149C22.4177 47.0507 22.5133 48.1185 22.613 49.2182C22.7127 50.318 22.8125 51.4275 22.9122 52.5468L19.9324 50.6927C19.8493 49.6523 19.762 48.6044 19.6706 47.549C19.5875 46.4987 19.5002 45.4557 19.4088 44.4198L19.0722 40.4366L18.8353 40.2892L17.601 43.5299C17.31 44.2985 17.0191 45.0671 16.7282 45.8356C16.4373 46.6042 16.1464 47.3776 15.8555 48.156L13.6113 46.7596C13.3037 45.6089 12.9962 44.468 12.6887 43.3368C12.3894 42.2109 12.0902 41.0898 11.791 39.9736L10.4819 35.0915L10.245 34.9441L9.90835 38.4351C9.81692 39.3865 9.72549 40.3379 9.63406 41.2894C9.54263 42.231 9.4512 43.1726 9.35977 44.1143L6.49219 42.33Z" fill="white"/>
<path d="M40.6739 49.3864C39.912 49.8604 39.2317 50.0967 38.6331 50.0953C38.0344 50.0939 37.5582 49.8507 37.2045 49.3658C36.8598 48.8645 36.6875 48.1118 36.6875 47.1076C36.6875 46.221 36.819 45.3913 37.0821 44.6188C37.3451 43.8355 37.6898 43.119 38.1161 42.4691C38.5514 41.803 39.0276 41.2022 39.5446 40.6669C40.0707 40.1259 40.6013 39.6408 41.1365 39.2117L45.014 36.126C45.0412 35.3613 44.9324 34.8522 44.6875 34.5986C44.4516 34.3394 44.1115 34.2733 43.6671 34.4003C43.2226 34.5166 42.7101 34.7553 42.1297 35.1165C41.8213 35.3084 41.4857 35.5493 41.1229 35.8391C40.7691 36.1126 40.3927 36.4323 39.9936 36.7981C39.6036 37.1583 39.1954 37.5619 38.7691 38.0087C38.3428 38.4449 37.9074 38.9241 37.463 39.4463L37.2997 36.0066C37.6353 35.6482 38.0118 35.2645 38.429 34.8553C38.8553 34.4405 39.3179 34.0191 39.8167 33.5912C40.3156 33.1526 40.8326 32.7348 41.3678 32.3377C41.912 31.9243 42.4698 31.5399 43.0412 31.1843C44.1478 30.4958 45.0911 30.1011 45.8711 30.0003C46.6602 29.8832 47.2634 30.1115 47.6806 30.6851C48.0979 31.2481 48.3065 32.1919 48.3065 33.5166C48.3065 34.0293 48.3065 34.6649 48.3065 35.4234C48.3065 36.1819 48.3065 36.8762 48.3065 37.5065V39.2692C48.3065 40.049 48.3065 40.8449 48.3065 41.6567C48.3065 42.4579 48.3065 43.3286 48.3065 44.2687L45.2453 46.1734L45.0412 44.2173L44.7555 44.395C44.5015 44.9483 44.1841 45.5304 43.8031 46.1413C43.4222 46.7416 42.9686 47.3336 42.4426 47.9173C41.9256 48.4847 41.336 48.9744 40.6739 49.3864ZM41.9256 45.4187C42.3065 45.1817 42.6829 44.8407 43.0548 44.3956C43.4267 43.9506 43.7714 43.437 44.0888 42.8549C44.4154 42.2672 44.692 41.6357 44.9188 40.9605V38.4447C44.8008 38.6142 44.6421 38.8038 44.4426 39.0134C44.2521 39.2067 43.9664 39.4699 43.5854 39.8031C43.2045 40.1363 42.6693 40.5921 41.98 41.1706C41.59 41.4987 41.2589 41.8489 40.9868 42.2212C40.7238 42.5878 40.5197 42.9766 40.3746 43.3873C40.2294 43.7981 40.1569 44.2118 40.1569 44.6284C40.1569 45.3228 40.3337 45.7042 40.6875 45.7725C41.0503 45.8245 41.463 45.7066 41.9256 45.4187Z" fill="white"/>
<defs>
<radialGradient id="paint0_radial_852_12375" cx="0" cy="0" r="1" gradientUnits="userSpaceOnUse" gradientTransform="translate(28.5 19.0174) rotate(90) scale(44.6635 38.3585)">
<stop offset="0.75" stop-color="white"/>
<stop offset="1" stop-color="white" stop-opacity="0.5"/>
</radialGradient>
<radialGradient id="paint1_radial_852_12375" cx="0" cy="0" r="1" gradientUnits="userSpaceOnUse" gradientTransform="translate(28.5 13.7883) rotate(90) scale(50.9053 55.1032)">
<stop offset="0.65" stop-color="#197FF2"/>
<stop offset="1" stop-color="#4099FD"/>
</radialGradient>
<linearGradient id="paint2_linear_852_12375" x1="29.9347" y1="29.168" x2="29.9347" y2="63.6812" gradientUnits="userSpaceOnUse">
<stop stop-color="#197FF2" stop-opacity="0"/>
<stop offset="0.51" stop-color="#197FF2"/>
<stop offset="1" stop-color="#197FF2" stop-opacity="0"/>
</linearGradient>
<linearGradient id="paint3_linear_852_12375" x1="29.9347" y1="29.168" x2="29.9347" y2="63.6812" gradientUnits="userSpaceOnUse">
<stop stop-color="white" stop-opacity="0.2"/>
<stop offset="0.51" stop-color="white"/>
<stop offset="1" stop-color="white" stop-opacity="0.2"/>
</linearGradient>
<radialGradient id="paint4_radial_852_12375" cx="0" cy="0" r="1" gradientUnits="userSpaceOnUse" gradientTransform="translate(27.9208 16.3229) rotate(146.113) scale(7.52026 7.81982)">
<stop offset="0.456111" stop-color="#FF6065"/>
<stop offset="1" stop-color="#FF6065" stop-opacity="0.8"/>
</radialGradient>
</defs>
</svg>
