<svg width="233" height="264" viewBox="0 0 233 264" fill="none" xmlns="http://www.w3.org/2000/svg">
<path fill-rule="evenodd" clip-rule="evenodd" d="M103.36 3.52305C111.496 -1.17435 121.52 -1.17435 129.656 3.52304L219.36 55.3139C227.496 60.0113 232.508 68.6923 232.508 78.087V181.669C232.508 191.064 227.496 199.745 219.36 204.442L129.656 256.233C121.52 260.93 111.496 260.93 103.36 256.233L13.6558 204.442C5.5198 199.745 0.507812 191.064 0.507812 181.669V78.087C0.507812 68.6923 5.51979 60.0113 13.6558 55.314L103.36 3.52305ZM25.3125 175.711C25.7258 171.588 26.1218 167.495 26.5005 163.432C26.9138 159.39 27.3098 155.378 27.6885 151.396L28.4117 143.572C28.8249 139.449 29.2381 135.285 29.6513 131.081C30.0645 126.877 30.4605 122.703 30.8393 118.558L45.2503 127.525C46.421 131.62 47.5918 135.755 48.7626 139.931C49.9334 144.107 51.0869 148.211 52.2233 152.244L58.9381 176.254L59.9711 176.897L66.5826 161.178C67.7533 158.5 68.9069 155.811 70.0433 153.112C71.1796 150.412 72.3159 147.732 73.4523 145.073L87.5533 153.847C87.9665 158.403 88.3798 163.081 88.793 167.881C89.2406 172.702 89.6711 177.41 90.0843 182.007L90.9107 190.977C91.2895 195.269 91.6855 199.692 92.0987 204.249C92.5119 208.805 92.9251 213.401 93.3384 218.039L80.9935 210.357C80.6492 206.047 80.2876 201.705 79.9088 197.333C79.5645 192.982 79.2029 188.661 78.8241 184.369L77.4295 167.867L76.4481 167.256L71.3346 180.682L67.7189 190.235C66.5137 193.419 65.3085 196.623 64.1033 199.848L54.8059 194.063C53.5318 189.295 52.2577 184.569 50.9836 179.882C49.744 175.218 48.5043 170.573 47.2647 165.949L41.8412 145.723L40.8598 145.112L39.4652 159.575L38.3289 171.4L37.1925 183.103L25.3125 175.711ZM158.357 207.798C160.837 207.803 163.655 206.824 166.812 204.86C169.555 203.154 171.997 201.125 174.139 198.774C176.319 196.356 178.198 193.903 179.776 191.417C181.354 188.886 182.669 186.474 183.721 184.182L184.905 183.445L185.751 191.549L198.433 183.658V172.837V162.946V155.643V147.013V139.113C198.433 133.625 197.568 129.715 195.84 127.383C194.111 125.006 191.613 124.061 188.343 124.546C185.112 124.963 181.204 126.598 176.619 129.451C174.252 130.924 171.941 132.517 169.687 134.229C167.469 135.874 165.328 137.605 163.261 139.423C161.194 141.195 159.278 142.941 157.512 144.659C155.783 146.355 154.224 147.945 152.833 149.429L153.51 163.68C155.351 161.516 157.155 159.531 158.921 157.724C160.687 155.872 162.378 154.201 163.994 152.708C165.647 151.193 167.206 149.868 168.672 148.735C170.175 147.535 171.565 146.537 172.843 145.742C175.248 144.245 177.371 143.256 179.212 142.774C181.053 142.248 182.463 142.522 183.44 143.596C184.454 144.647 184.905 146.756 184.792 149.924L168.728 162.708C166.511 164.486 164.313 166.495 162.134 168.736C159.992 170.954 158.019 173.443 156.215 176.203C154.449 178.895 153.021 181.864 151.932 185.109C150.842 188.309 150.297 191.746 150.297 195.42C150.297 199.58 151.011 202.698 152.439 204.775C153.904 206.784 155.877 207.792 158.357 207.798ZM176.676 184.184C175.135 186.028 173.576 187.441 171.997 188.423C170.081 189.615 168.371 190.104 166.868 189.888C165.403 189.605 164.67 188.025 164.67 185.149C164.67 183.423 164.971 181.709 165.572 180.007C166.173 178.305 167.019 176.695 168.108 175.176C169.236 173.633 170.607 172.183 172.223 170.823C175.079 168.427 177.296 166.538 178.874 165.158C180.452 163.777 181.636 162.687 182.425 161.886C183.252 161.018 183.909 160.232 184.398 159.53V169.953C183.458 172.75 182.312 175.366 180.96 177.801C179.644 180.213 178.216 182.34 176.676 184.184ZM20.2524 65.3602C18.0837 66.6297 18.0837 69.7642 20.2523 71.0337L106.518 121.531C112.672 125.133 120.291 125.133 126.445 121.531L212.711 71.0337C214.879 69.7642 214.879 66.6297 212.711 65.3602L126.445 14.8627C120.291 11.2605 112.672 11.2605 106.518 14.8627L20.2524 65.3602Z" fill="url(#paint0_radial_1141_11933)"/>
<path opacity="0.15" fill-rule="evenodd" clip-rule="evenodd" d="M122.392 120.84L122.392 263.825H112.531L112.531 120.84H122.392Z" fill="url(#paint1_linear_1141_11933)"/>
<path d="M88.0505 84.8873C157.623 102.665 184.612 58.4561 134.495 54.2324C127.997 20.7126 61.2242 38.3993 88.0505 84.8873Z" fill="white"/>
<defs>
<radialGradient id="paint0_radial_1141_11933" cx="0" cy="0" r="1" gradientUnits="userSpaceOnUse" gradientTransform="translate(116.508 57.1235) rotate(90) scale(210.896 183.356)">
<stop offset="0.75" stop-color="white"/>
<stop offset="1" stop-color="white" stop-opacity="0.3"/>
</radialGradient>
<linearGradient id="paint1_linear_1141_11933" x1="122.456" y1="120.84" x2="122.456" y2="263.825" gradientUnits="userSpaceOnUse">
<stop stop-color="#F67E6E" stop-opacity="0"/>
<stop offset="0.51" stop-color="#F67E6E"/>
<stop offset="1" stop-color="#F67E6E" stop-opacity="0"/>
</linearGradient>
</defs>
</svg>
