<svg width="65" height="64" viewBox="0 0 65 64" fill="none" xmlns="http://www.w3.org/2000/svg">
<rect x="0.5" width="64" height="64" rx="32" fill="white"/>
<path d="M17.5 23.668H22.5" stroke="#197FF2" stroke-width="3" stroke-linecap="round" stroke-linejoin="round"/>
<path d="M17.5 40.332H27.5" stroke="#197FF2" stroke-width="3" stroke-linecap="round" stroke-linejoin="round"/>
<path d="M42.5 40.332H47.5" stroke="#197FF2" stroke-width="3" stroke-linecap="round" stroke-linejoin="round"/>
<path d="M37.5 23.668H47.5" stroke="#197FF2" stroke-width="3" stroke-linecap="round" stroke-linejoin="round"/>
<path d="M22.5 23.668C22.5 22.1148 22.5 21.3383 22.7537 20.7257C23.092 19.9089 23.741 19.26 24.5577 18.9217C25.1703 18.668 25.9469 18.668 27.5 18.668C29.0531 18.668 29.8297 18.668 30.4423 18.9217C31.259 19.26 31.908 19.9089 32.2463 20.7257C32.5 21.3383 32.5 22.1148 32.5 23.668C32.5 25.2211 32.5 25.9977 32.2463 26.6103C31.908 27.427 31.259 28.0759 30.4423 28.4142C29.8297 28.668 29.0531 28.668 27.5 28.668C25.9469 28.668 25.1703 28.668 24.5577 28.4142C23.741 28.0759 23.092 27.427 22.7537 26.6103C22.5 25.9977 22.5 25.2211 22.5 23.668Z" stroke="#197FF2" stroke-width="3"/>
<path d="M32.5 40.332C32.5 38.7789 32.5 38.0024 32.7537 37.3897C33.092 36.573 33.741 35.924 34.5577 35.5857C35.1703 35.332 35.9468 35.332 37.5 35.332C39.0532 35.332 39.8297 35.332 40.4423 35.5857C41.259 35.924 41.908 36.573 42.2463 37.3897C42.5 38.0024 42.5 38.7789 42.5 40.332C42.5 41.8852 42.5 42.6617 42.2463 43.2744C41.908 44.091 41.259 44.74 40.4423 45.0784C39.8297 45.332 39.0532 45.332 37.5 45.332C35.9468 45.332 35.1703 45.332 34.5577 45.0784C33.741 44.74 33.092 44.091 32.7537 43.2744C32.5 42.6617 32.5 41.8852 32.5 40.332Z" stroke="#197FF2" stroke-width="3"/>
</svg>
