<svg width="65" height="64" viewBox="0 0 65 64" fill="none" xmlns="http://www.w3.org/2000/svg">
<rect x="0.5" width="64" height="64" rx="32" fill="white"/>
<path d="M16.7217 35.9887C16.3673 38.2439 17.9519 39.809 19.892 40.589C27.3299 43.5797 37.6805 43.5797 45.1184 40.589C47.0585 39.809 48.643 38.2439 48.2887 35.9887C48.0709 34.6029 46.9939 33.4489 46.1959 32.322C45.1507 30.8279 45.0469 29.1982 45.0467 27.4644C45.0467 20.7639 39.4317 15.332 32.5052 15.332C25.5788 15.332 19.9638 20.7639 19.9638 27.4644C19.9636 29.1982 19.8597 30.8279 18.8146 32.322C18.0166 33.4489 16.9396 34.6029 16.7217 35.9887Z" stroke="#197FF2" stroke-width="3" stroke-linecap="round" stroke-linejoin="round"/>
<path d="M27.5 47C28.8269 48.0365 30.5792 48.6667 32.5 48.6667C34.4208 48.6667 36.1732 48.0365 37.5 47" stroke="#197FF2" stroke-width="3" stroke-linecap="round" stroke-linejoin="round"/>
</svg>
