<svg width="32" height="32" viewBox="0 0 32 32" fill="none" xmlns="http://www.w3.org/2000/svg">
<rect width="32" height="32" rx="16" fill="white"/>
<path d="M8.10697 17.9953C7.92976 19.1229 8.72203 19.9055 9.69207 20.2955C13.411 21.7908 18.5864 21.7908 22.3053 20.2955C23.2754 19.9055 24.0676 19.1229 23.8904 17.9953C23.7815 17.3024 23.243 16.7254 22.844 16.162C22.3214 15.4149 22.2695 14.6001 22.2694 13.7332C22.2694 10.3829 19.4619 7.66699 15.9987 7.66699C12.5355 7.66699 9.72797 10.3829 9.72797 13.7332C9.72789 14.6001 9.67597 15.4149 9.15337 16.162C8.7544 16.7254 8.21587 17.3024 8.10697 17.9953Z" stroke="#818499" stroke-width="1.5" stroke-linecap="round" stroke-linejoin="round"/>
<path d="M13.5 23.5C14.1634 24.0183 15.0396 24.3333 16 24.3333C16.9604 24.3333 17.8366 24.0183 18.5 23.5" stroke="#818499" stroke-width="1.5" stroke-linecap="round" stroke-linejoin="round"/>
<circle cx="24" cy="8" r="5" fill="#FF6065" stroke="white" stroke-width="2"/>
</svg>
