<svg width="335" height="146" viewBox="0 0 335 146" fill="none" xmlns="http://www.w3.org/2000/svg">
<path d="M1.48 17C1.48 16.3653 1.48 15.7547 1.48 15.168C1.48 14.5813 1.48 13.936 1.48 13.232V9.408C1.48 8.688 1.48 8.032 1.48 7.44C1.48 6.84267 1.48 6.22667 1.48 5.592H2.896C2.896 6.232 2.896 6.85067 2.896 7.448C2.896 8.04 2.896 8.69333 2.896 9.408V14.52H3.016L5.496 11.016C6.10933 10.152 6.73333 9.272 7.368 8.376C8.00267 7.47467 8.65867 6.54667 9.336 5.592H10.584C10.584 6.22667 10.584 6.84267 10.584 7.44C10.584 8.032 10.584 8.688 10.584 9.408V13.232C10.584 13.936 10.584 14.5813 10.584 15.168C10.584 15.7547 10.584 16.3653 10.584 17H9.168C9.168 16.3653 9.168 15.7547 9.168 15.168C9.168 14.576 9.168 13.928 9.168 13.224V8.064H9.048L6.568 11.56C5.816 12.6213 5.128 13.592 4.504 14.472C3.88 15.352 3.28267 16.1947 2.712 17H1.48ZM13.1025 17.144C13.0225 17.144 12.9318 17.1387 12.8305 17.128C12.7292 17.1227 12.6278 17.112 12.5265 17.096C12.4305 17.08 12.3398 17.0613 12.2545 17.04L12.3345 15.896C12.4252 15.9173 12.5132 15.9333 12.5985 15.944C12.6892 15.9493 12.7612 15.952 12.8145 15.952C13.1025 15.952 13.3345 15.84 13.5105 15.616C13.6918 15.392 13.8305 15.0933 13.9265 14.72C14.0225 14.3467 14.0945 13.9387 14.1425 13.496C14.1905 13.048 14.2278 12.6053 14.2545 12.168C14.2865 11.6453 14.3212 11.1227 14.3585 10.6C14.3958 10.072 14.4305 9.56 14.4625 9.064H20.0465C20.0465 9.45333 20.0465 9.83733 20.0465 10.216C20.0465 10.5893 20.0465 10.9787 20.0465 11.384C20.0465 11.784 20.0465 12.2213 20.0465 12.696V13.496C20.0465 14.152 20.0465 14.752 20.0465 15.296C20.0465 15.84 20.0465 16.408 20.0465 17H18.7265C18.7265 16.408 18.7265 15.84 18.7265 15.296C18.7265 14.752 18.7265 14.152 18.7265 13.496V12.696C18.7265 12.2427 18.7265 11.8293 18.7265 11.456C18.7265 11.0773 18.7265 10.7147 18.7265 10.368C18.7265 10.016 18.7265 9.65067 18.7265 9.272L19.5105 10.144H14.9745L15.6545 9.272C15.6278 9.62933 15.6012 9.99733 15.5745 10.376C15.5478 10.7547 15.5212 11.1333 15.4945 11.512C15.4732 11.8853 15.4465 12.2587 15.4145 12.632C15.3718 13.2293 15.3132 13.8 15.2385 14.344C15.1692 14.8827 15.0572 15.3627 14.9025 15.784C14.7532 16.2053 14.5345 16.5387 14.2465 16.784C13.9638 17.024 13.5825 17.144 13.1025 17.144ZM22.5529 17C22.5529 16.408 22.5529 15.84 22.5529 15.296C22.5529 14.752 22.5529 14.152 22.5529 13.496V12.696C22.5529 12.2213 22.5529 11.784 22.5529 11.384C22.5529 10.9787 22.5529 10.5893 22.5529 10.216C22.5529 9.83733 22.5529 9.45333 22.5529 9.064L23.8329 9.016C23.8329 9.39467 23.8329 9.768 23.8329 10.136C23.8329 10.504 23.8329 10.8853 23.8329 11.28C23.8329 11.6693 23.8329 12.0933 23.8329 12.552V15.08H23.9449L25.6489 12.448C26.0169 11.8827 26.3849 11.3147 26.7529 10.744C27.1209 10.1733 27.4862 9.61333 27.8489 9.064H29.2169C29.2169 9.45333 29.2169 9.83733 29.2169 10.216C29.2169 10.5893 29.2169 10.9787 29.2169 11.384C29.2169 11.784 29.2169 12.2213 29.2169 12.696V13.496C29.2169 14.152 29.2169 14.752 29.2169 15.296C29.2169 15.84 29.2169 16.408 29.2169 17H27.9449C27.9449 16.4187 27.9449 15.8587 27.9449 15.32C27.9449 14.776 27.9449 14.1813 27.9449 13.536V10.976H27.8329L26.1449 13.576C25.7715 14.152 25.4009 14.7253 25.0329 15.296C24.6649 15.8667 24.2969 16.4347 23.9289 17H22.5529ZM34.7873 17C34.7873 16.408 34.7873 15.84 34.7873 15.296C34.7873 14.7467 34.7873 14.144 34.7873 13.488V12.688C34.7873 12.2133 34.7873 11.776 34.7873 11.376C34.7873 10.976 34.7873 10.5893 34.7873 10.216C34.7873 9.83733 34.7873 9.45333 34.7873 9.064C35.2673 9.064 35.8433 9.064 36.5153 9.064C37.1926 9.064 37.8433 9.064 38.4673 9.064C39.0966 9.064 39.6006 9.14133 39.9793 9.296C40.3579 9.45067 40.6299 9.66933 40.7953 9.952C40.9659 10.2293 41.0513 10.56 41.0513 10.944C41.0513 11.4453 40.9206 11.848 40.6593 12.152C40.4033 12.456 40.0859 12.6667 39.7073 12.784V12.888C39.9633 12.936 40.2086 13.0293 40.4433 13.168C40.6833 13.3013 40.8806 13.5013 41.0353 13.768C41.1953 14.0293 41.2753 14.3787 41.2753 14.816C41.2753 15.232 41.1819 15.6053 40.9953 15.936C40.8139 16.2613 40.4886 16.52 40.0193 16.712C39.5553 16.904 38.8939 17 38.0353 17C37.3899 17 36.7873 17 36.2273 17C35.6673 17 35.1873 17 34.7873 17ZM36.0753 15.936H37.9233C38.4353 15.936 38.8379 15.888 39.1313 15.792C39.4299 15.696 39.6379 15.5547 39.7553 15.368C39.8779 15.1813 39.9393 14.9547 39.9393 14.688C39.9393 14.2347 39.7793 13.9147 39.4593 13.728C39.1446 13.5413 38.6833 13.448 38.0753 13.448H35.7233V12.48H37.9392C38.3819 12.48 38.7313 12.4267 38.9873 12.32C39.2433 12.208 39.4246 12.0587 39.5313 11.872C39.6433 11.68 39.6993 11.464 39.6993 11.224C39.6993 10.8187 39.5659 10.536 39.2993 10.376C39.0379 10.2107 38.6646 10.128 38.1793 10.128H36.0753C36.0753 10.5547 36.0753 10.968 36.0753 11.368C36.0753 11.768 36.0753 12.2027 36.0753 12.672V13.472C36.0753 13.9253 36.0753 14.3467 36.0753 14.736C36.0753 15.1253 36.0753 15.5253 36.0753 15.936ZM46.8236 17.176C46.1676 17.176 45.589 17.064 45.0876 16.84C44.5916 16.6107 44.1756 16.3013 43.8396 15.912C43.5036 15.5227 43.2476 15.0773 43.0716 14.576C42.901 14.0693 42.8156 13.5387 42.8156 12.984C42.8156 12.1893 42.9756 11.4853 43.2956 10.872C43.621 10.2533 44.0796 9.76533 44.6716 9.408C45.269 9.05067 45.9783 8.872 46.7996 8.872C47.4343 8.872 47.997 8.976 48.4876 9.184C48.9783 9.392 49.3943 9.68267 49.7356 10.056C50.077 10.4293 50.3356 10.8667 50.5116 11.368C50.6876 11.864 50.7756 12.4027 50.7756 12.984C50.7756 13.768 50.6156 14.4773 50.2956 15.112C49.9756 15.7467 49.5196 16.2507 48.9276 16.624C48.341 16.992 47.6396 17.176 46.8236 17.176ZM46.8236 16.024C47.405 16.024 47.8876 15.88 48.2716 15.592C48.6556 15.304 48.9436 14.928 49.1356 14.464C49.3276 14 49.4236 13.5067 49.4236 12.984C49.4236 12.3867 49.317 11.8667 49.1036 11.424C48.8903 10.9813 48.589 10.6373 48.1996 10.392C47.8103 10.1467 47.349 10.024 46.8156 10.024C46.2396 10.024 45.7543 10.1547 45.3596 10.416C44.965 10.6773 44.6663 11.032 44.4636 11.48C44.2663 11.928 44.1676 12.4293 44.1676 12.984C44.1676 13.5067 44.2636 14 44.4556 14.464C44.653 14.928 44.949 15.304 45.3436 15.592C45.7383 15.88 46.2316 16.024 46.8236 16.024ZM52.8341 17C52.8341 16.408 52.8341 15.84 52.8341 15.296C52.8341 14.752 52.8341 14.152 52.8341 13.496V12.696C52.8341 12.2213 52.8341 11.784 52.8341 11.384C52.8341 10.9787 52.8341 10.5893 52.8341 10.216C52.8341 9.83733 52.8341 9.45333 52.8341 9.064L54.1141 9.016C54.1141 9.39467 54.1141 9.768 54.1141 10.136C54.1141 10.504 54.1141 10.8853 54.1141 11.28C54.1141 11.6693 54.1141 12.0933 54.1141 12.552V15.08H54.2261L55.9301 12.448C56.2981 11.8827 56.6661 11.3147 57.0341 10.744C57.4021 10.1733 57.7675 9.61333 58.1301 9.064H59.4981C59.4981 9.45333 59.4981 9.83733 59.4981 10.216C59.4981 10.5893 59.4981 10.9787 59.4981 11.384C59.4981 11.784 59.4981 12.2213 59.4981 12.696V13.496C59.4981 14.152 59.4981 14.752 59.4981 15.296C59.4981 15.84 59.4981 16.408 59.4981 17H58.2261C58.2261 16.4187 58.2261 15.8587 58.2261 15.32C58.2261 14.776 58.2261 14.1813 58.2261 13.536V10.976H58.1141L56.4261 13.576C56.0528 14.152 55.6821 14.7253 55.3141 15.296C54.9461 15.8667 54.5781 16.4347 54.2101 17H52.8341ZM56.1621 7.848C55.2501 7.848 54.5701 7.61067 54.1221 7.136C53.6795 6.66133 53.4555 6.032 53.4501 5.248L54.5701 5.208C54.5701 5.784 54.7008 6.22133 54.9621 6.52C55.2235 6.81333 55.6235 6.96 56.1621 6.96C56.5301 6.96 56.8315 6.896 57.0661 6.768C57.3008 6.63467 57.4768 6.44267 57.5941 6.192C57.7115 5.936 57.7701 5.62133 57.7701 5.248H58.8821C58.8821 6.032 58.6608 6.66133 58.2181 7.136C57.7808 7.61067 57.0955 7.848 56.1621 7.848ZM67.3096 16.792C67.3096 16.424 67.3096 16.072 67.3096 15.736C67.3096 15.4 67.3096 15.0507 67.3096 14.688C67.3096 14.3253 67.3096 13.928 67.3096 13.496V12.696C67.3096 12.2427 67.3096 11.8293 67.3096 11.456C67.3096 11.0773 67.3096 10.7147 67.3096 10.368C67.3096 10.016 67.3096 9.65067 67.3096 9.272L67.9016 10.152H63.6056L64.2056 9.272C64.1896 9.61333 64.171 9.94667 64.1496 10.272C64.1283 10.5973 64.107 10.9387 64.0856 11.296C64.0696 11.648 64.0483 12.04 64.0216 12.472C63.995 12.9627 63.939 13.4347 63.8536 13.888C63.7736 14.3413 63.6616 14.76 63.5176 15.144C63.3736 15.5227 63.195 15.8587 62.9816 16.152L61.6856 15.976C61.835 15.832 61.9896 15.616 62.1496 15.328C62.3096 15.0347 62.451 14.64 62.5736 14.144C62.7016 13.6427 62.7923 13.0053 62.8456 12.232C62.883 11.576 62.9176 11.0053 62.9496 10.52C62.9816 10.0293 63.011 9.544 63.0376 9.064H68.6136C68.6136 9.45333 68.6136 9.83733 68.6136 10.216C68.6136 10.5893 68.6136 10.9787 68.6136 11.384C68.6136 11.784 68.6136 12.2213 68.6136 12.696V13.496C68.6136 14.152 68.6136 14.728 68.6136 15.224C68.6136 15.72 68.6136 16.2427 68.6136 16.792H67.3096ZM60.9176 19.208C60.9176 18.9413 60.9176 18.6747 60.9176 18.408C60.9176 18.1413 60.9176 17.8747 60.9176 17.608C60.9176 17.336 60.9176 17.056 60.9176 16.768C60.9176 16.4747 60.9176 16.1893 60.9176 15.912C61.3923 15.912 61.875 15.912 62.3656 15.912C62.8563 15.912 63.331 15.912 63.7896 15.912H66.9496C67.4136 15.912 67.8883 15.912 68.3736 15.912C68.8643 15.912 69.3496 15.912 69.8296 15.912C69.8296 16.1893 69.8296 16.4747 69.8296 16.768C69.8296 17.056 69.8296 17.336 69.8296 17.608C69.8296 17.8747 69.8296 18.1413 69.8296 18.408C69.8296 18.6747 69.8296 18.9413 69.8296 19.208H68.6776L68.6136 16.824L68.9096 17H61.8376L62.1336 16.824L62.0776 19.208H60.9176ZM71.3966 17C71.3966 16.408 71.3966 15.84 71.3966 15.296C71.3966 14.752 71.3966 14.152 71.3966 13.496V12.696C71.3966 12.2213 71.3966 11.784 71.3966 11.384C71.3966 10.9787 71.3966 10.5893 71.3966 10.216C71.3966 9.83733 71.3966 9.45333 71.3966 9.064L72.6766 9.016C72.6766 9.39467 72.6766 9.768 72.6766 10.136C72.6766 10.504 72.6766 10.8853 72.6766 11.28C72.6766 11.6693 72.6766 12.0933 72.6766 12.552V15.08H72.7886L74.4926 12.448C74.8606 11.8827 75.2286 11.3147 75.5966 10.744C75.9646 10.1733 76.33 9.61333 76.6926 9.064H78.0606C78.0606 9.45333 78.0606 9.83733 78.0606 10.216C78.0606 10.5893 78.0606 10.9787 78.0606 11.384C78.0606 11.784 78.0606 12.2213 78.0606 12.696V13.496C78.0606 14.152 78.0606 14.752 78.0606 15.296C78.0606 15.84 78.0606 16.408 78.0606 17H76.7886C76.7886 16.4187 76.7886 15.8587 76.7886 15.32C76.7886 14.776 76.7886 14.1813 76.7886 13.536V10.976H76.6766L74.9886 13.576C74.6153 14.152 74.2446 14.7253 73.8766 15.296C73.5086 15.8667 73.1406 16.4347 72.7726 17H71.3966ZM82.4165 17C82.4165 16.408 82.4165 15.84 82.4165 15.296C82.4165 14.752 82.4165 14.152 82.4165 13.496V12.696C82.4165 12.2427 82.4165 11.8293 82.4165 11.456C82.4165 11.0773 82.4165 10.7147 82.4165 10.368C82.4165 10.016 82.4165 9.65067 82.4165 9.272L82.8565 10.144H82.5525C82.0885 10.144 81.6112 10.144 81.1205 10.144C80.6298 10.144 80.1472 10.144 79.6725 10.144V9.064H86.4805V10.144C86.0058 10.144 85.5232 10.144 85.0325 10.144C84.5418 10.144 84.0645 10.144 83.6005 10.144H83.2965L83.7365 9.272C83.7365 9.65067 83.7365 10.016 83.7365 10.368C83.7365 10.7147 83.7365 11.0773 83.7365 11.456C83.7365 11.8293 83.7365 12.2427 83.7365 12.696V13.496C83.7365 14.152 83.7365 14.752 83.7365 15.296C83.7365 15.84 83.7365 16.408 83.7365 17H82.4165ZM91.6944 17.176C90.745 17.176 89.9637 16.9947 89.3504 16.632C88.737 16.2693 88.281 15.7733 87.9824 15.144C87.6837 14.5147 87.5344 13.7947 87.5344 12.984C87.5344 12.184 87.681 11.4747 87.9744 10.856C88.2677 10.2373 88.689 9.75467 89.2384 9.408C89.7877 9.056 90.4437 8.88 91.2064 8.88C91.8784 8.88 92.4544 9.01067 92.9344 9.272C93.4197 9.53333 93.793 9.91733 94.0544 10.424C94.3157 10.9253 94.4464 11.5467 94.4464 12.288C94.4464 12.4853 94.441 12.664 94.4304 12.824C94.425 12.9787 94.409 13.136 94.3824 13.296L93.2224 12.712C93.233 12.6267 93.2384 12.5467 93.2384 12.472C93.2437 12.392 93.2464 12.3147 93.2464 12.24C93.2464 11.488 93.0597 10.9173 92.6864 10.528C92.313 10.1333 91.825 9.936 91.2224 9.936C90.737 9.936 90.3184 10.0613 89.9664 10.312C89.6197 10.5573 89.3504 10.8987 89.1584 11.336C88.9664 11.7733 88.8704 12.272 88.8704 12.832V13.016C88.8704 13.6347 88.977 14.168 89.1904 14.616C89.4037 15.064 89.7264 15.4107 90.1584 15.656C90.5957 15.896 91.1504 16.016 91.8224 16.016C92.073 16.016 92.337 15.9973 92.6144 15.96C92.897 15.9173 93.1744 15.8533 93.4464 15.768C93.7237 15.6827 93.9877 15.5707 94.2384 15.432L94.2944 16.624C94.0917 16.736 93.857 16.8347 93.5904 16.92C93.3237 17 93.0304 17.0613 92.7104 17.104C92.3904 17.152 92.0517 17.176 91.6944 17.176ZM88.0864 13.296V12.352L93.5744 12.304L94.3824 12.608V13.296H88.0864ZM103.066 17.16C102.208 17.16 101.477 16.9787 100.874 16.616C100.277 16.2533 99.821 15.76 99.5064 15.136C99.1917 14.512 99.0344 13.808 99.0344 13.024C99.0344 12.24 99.1837 11.536 99.4824 10.912C99.7864 10.2827 100.226 9.78667 100.802 9.424C101.384 9.06133 102.09 8.88 102.922 8.88C103.232 8.88 103.536 8.90667 103.834 8.96C104.138 9.01333 104.424 9.08533 104.69 9.176C104.957 9.26133 105.194 9.36267 105.402 9.48L105.282 10.696C104.984 10.5253 104.701 10.3947 104.434 10.304C104.173 10.208 103.928 10.144 103.698 10.112C103.474 10.0747 103.266 10.056 103.074 10.056C102.264 10.056 101.613 10.3227 101.122 10.856C100.632 11.384 100.386 12.0987 100.386 13C100.386 13.5653 100.493 14.0773 100.706 14.536C100.925 14.9893 101.25 15.3493 101.682 15.616C102.12 15.8773 102.661 16.008 103.306 16.008C103.536 16.008 103.762 15.9867 103.986 15.944C104.216 15.9013 104.442 15.84 104.666 15.76C104.89 15.6747 105.106 15.5653 105.314 15.432L105.426 16.64C105.25 16.736 105.045 16.824 104.81 16.904C104.576 16.9787 104.312 17.04 104.018 17.088C103.73 17.136 103.413 17.16 103.066 17.16ZM110.459 17C110.459 16.408 110.459 15.84 110.459 15.296C110.459 14.752 110.459 14.152 110.459 13.496V12.696C110.459 12.2213 110.459 11.784 110.459 11.384C110.459 10.9787 110.459 10.5893 110.459 10.216C110.459 9.83733 110.459 9.45333 110.459 9.064H117.059C117.059 9.45333 117.059 9.83733 117.059 10.216C117.059 10.5893 117.059 10.9787 117.059 11.384C117.059 11.784 117.059 12.2213 117.059 12.696V13.496C117.059 14.152 117.059 14.752 117.059 15.296C117.059 15.84 117.059 16.408 117.059 17H115.731C115.731 16.408 115.731 15.84 115.731 15.296C115.731 14.752 115.731 14.152 115.731 13.496V12.696C115.731 12.2427 115.731 11.8293 115.731 11.456C115.731 11.0773 115.731 10.7147 115.731 10.368C115.731 10.016 115.731 9.65067 115.731 9.272L116.323 10.144H111.195L111.779 9.272C111.779 9.65067 111.779 10.016 111.779 10.368C111.779 10.7147 111.779 11.0773 111.779 11.456C111.779 11.8293 111.779 12.2427 111.779 12.696V13.496C111.779 14.152 111.779 14.752 111.779 15.296C111.779 15.84 111.779 16.408 111.779 17H110.459ZM123.121 17.176C122.465 17.176 121.886 17.064 121.385 16.84C120.889 16.6107 120.473 16.3013 120.137 15.912C119.801 15.5227 119.545 15.0773 119.368 14.576C119.198 14.0693 119.113 13.5387 119.113 12.984C119.113 12.1893 119.273 11.4853 119.593 10.872C119.918 10.2533 120.377 9.76533 120.969 9.408C121.566 9.05067 122.275 8.872 123.097 8.872C123.731 8.872 124.294 8.976 124.785 9.184C125.275 9.392 125.691 9.68267 126.033 10.056C126.374 10.4293 126.633 10.8667 126.809 11.368C126.985 11.864 127.073 12.4027 127.073 12.984C127.073 13.768 126.913 14.4773 126.593 15.112C126.273 15.7467 125.817 16.2507 125.225 16.624C124.638 16.992 123.937 17.176 123.121 17.176ZM123.121 16.024C123.702 16.024 124.185 15.88 124.569 15.592C124.953 15.304 125.241 14.928 125.433 14.464C125.625 14 125.721 13.5067 125.721 12.984C125.721 12.3867 125.614 11.8667 125.401 11.424C125.187 10.9813 124.886 10.6373 124.497 10.392C124.107 10.1467 123.646 10.024 123.113 10.024C122.537 10.024 122.051 10.1547 121.657 10.416C121.262 10.6773 120.963 11.032 120.761 11.48C120.563 11.928 120.465 12.4293 120.465 12.984C120.465 13.5067 120.561 14 120.753 14.464C120.95 14.928 121.246 15.304 121.641 15.592C122.035 15.88 122.529 16.024 123.121 16.024ZM128.556 17C128.62 16.4187 128.684 15.8507 128.748 15.296C128.812 14.736 128.873 14.1813 128.932 13.632L129.052 12.544C129.121 11.9627 129.188 11.3813 129.252 10.8C129.316 10.2187 129.38 9.64 129.444 9.064H130.884C131.103 9.576 131.321 10.0933 131.54 10.616C131.764 11.1387 131.985 11.6533 132.204 12.16L133.484 15.168H133.604L134.876 12.16C135.095 11.6373 135.313 11.12 135.532 10.608C135.751 10.0907 135.969 9.576 136.188 9.064H137.604C137.668 9.62933 137.732 10.2107 137.796 10.808C137.865 11.4 137.932 11.9813 137.996 12.552L138.116 13.648C138.175 14.1813 138.236 14.7307 138.3 15.296C138.364 15.8613 138.428 16.4293 138.492 17H137.236C137.172 16.392 137.105 15.7787 137.036 15.16C136.972 14.536 136.905 13.92 136.836 13.312L136.588 10.976H136.468L135.452 13.472C135.217 14.0587 134.98 14.6453 134.74 15.232C134.5 15.8187 134.26 16.408 134.02 17H133.068C132.823 16.408 132.577 15.8213 132.332 15.24C132.092 14.6533 131.852 14.072 131.612 13.496L130.564 10.976H130.444L130.188 13.288C130.119 13.9067 130.049 14.5253 129.98 15.144C129.916 15.7627 129.849 16.3813 129.78 17H128.556ZM143.98 17.176C143.324 17.176 142.745 17.064 142.244 16.84C141.748 16.6107 141.332 16.3013 140.996 15.912C140.66 15.5227 140.404 15.0773 140.228 14.576C140.057 14.0693 139.972 13.5387 139.972 12.984C139.972 12.1893 140.132 11.4853 140.452 10.872C140.777 10.2533 141.236 9.76533 141.828 9.408C142.425 9.05067 143.135 8.872 143.956 8.872C144.591 8.872 145.153 8.976 145.644 9.184C146.135 9.392 146.551 9.68267 146.892 10.056C147.233 10.4293 147.492 10.8667 147.668 11.368C147.844 11.864 147.932 12.4027 147.932 12.984C147.932 13.768 147.772 14.4773 147.452 15.112C147.132 15.7467 146.676 16.2507 146.084 16.624C145.497 16.992 144.796 17.176 143.98 17.176ZM143.98 16.024C144.561 16.024 145.044 15.88 145.428 15.592C145.812 15.304 146.1 14.928 146.292 14.464C146.484 14 146.58 13.5067 146.58 12.984C146.58 12.3867 146.473 11.8667 146.26 11.424C146.047 10.9813 145.745 10.6373 145.356 10.392C144.967 10.1467 144.505 10.024 143.972 10.024C143.396 10.024 142.911 10.1547 142.516 10.416C142.121 10.6773 141.823 11.032 141.62 11.48C141.423 11.928 141.324 12.4293 141.324 12.984C141.324 13.5067 141.42 14 141.612 14.464C141.809 14.928 142.105 15.304 142.5 15.592C142.895 15.88 143.388 16.024 143.98 16.024ZM160.822 19.208L160.766 16.824L161.062 17H149.99C149.99 16.408 149.99 15.84 149.99 15.296C149.99 14.752 149.99 14.152 149.99 13.496V12.696C149.99 12.2213 149.99 11.784 149.99 11.384C149.99 10.9787 149.99 10.5893 149.99 10.216C149.99 9.83733 149.99 9.45333 149.99 9.064L151.31 9.008C151.31 9.40267 151.31 9.792 151.31 10.176C151.31 10.56 151.31 10.9573 151.31 11.368C151.31 11.7733 151.31 12.216 151.31 12.696V13.496C151.31 13.928 151.31 14.3253 151.31 14.688C151.31 15.0507 151.31 15.4 151.31 15.736C151.31 16.072 151.31 16.424 151.31 16.792L150.51 15.912H158.054C158.684 15.912 159.332 15.912 159.998 15.912C160.665 15.912 161.326 15.912 161.982 15.912C161.982 16.1893 161.982 16.4747 161.982 16.768C161.982 17.056 161.982 17.336 161.982 17.608C161.982 17.8747 161.982 18.1413 161.982 18.408C161.982 18.6747 161.982 18.9413 161.982 19.208H160.822ZM154.742 16.792C154.742 16.424 154.742 16.072 154.742 15.736C154.742 15.4 154.742 15.0507 154.742 14.688C154.742 14.3253 154.742 13.928 154.742 13.496V12.696C154.742 12.2213 154.742 11.784 154.742 11.384C154.742 10.9787 154.742 10.5893 154.742 10.216C154.742 9.83733 154.742 9.45333 154.742 9.064H156.006C156.006 9.45333 156.006 9.83733 156.006 10.216C156.006 10.5893 156.006 10.9787 156.006 11.384C156.006 11.784 156.006 12.2213 156.006 12.696V13.496C156.006 13.928 156.006 14.3253 156.006 14.688C156.006 15.0507 156.006 15.4 156.006 15.736C156.006 16.072 156.006 16.424 156.006 16.792H154.742ZM159.446 16.792C159.446 16.424 159.446 16.072 159.446 15.736C159.446 15.4 159.446 15.0507 159.446 14.688C159.446 14.3253 159.446 13.928 159.446 13.496V12.696C159.446 12.2213 159.446 11.784 159.446 11.384C159.446 10.9787 159.446 10.5893 159.446 10.216C159.446 9.83733 159.446 9.45333 159.446 9.064H160.766C160.766 9.45333 160.766 9.83733 160.766 10.216C160.766 10.5893 160.766 10.9787 160.766 11.384C160.766 11.784 160.766 12.2213 160.766 12.696V13.496C160.766 13.928 160.766 14.3253 160.766 14.688C160.766 15.0507 160.766 15.4 160.766 15.736C160.766 16.072 160.766 16.424 160.766 16.792H159.446ZM163.537 17C163.537 16.408 163.537 15.84 163.537 15.296C163.537 14.752 163.537 14.152 163.537 13.496V12.696C163.537 12.2213 163.537 11.784 163.537 11.384C163.537 10.9787 163.537 10.5893 163.537 10.216C163.537 9.83733 163.537 9.45333 163.537 9.064L164.849 9.008C164.849 9.57867 164.849 10.136 164.849 10.68C164.849 11.2187 164.849 11.7947 164.849 12.408C164.849 13.0533 164.849 13.656 164.849 14.216C164.849 14.7707 164.849 15.344 164.849 15.936H166.417C166.817 15.936 167.18 15.8933 167.505 15.808C167.836 15.7227 168.097 15.5573 168.289 15.312C168.481 15.0613 168.577 14.7013 168.577 14.232C168.577 13.8853 168.521 13.6107 168.409 13.408C168.303 13.2 168.159 13.0453 167.977 12.944C167.796 12.8427 167.599 12.776 167.385 12.744C167.172 12.712 166.964 12.696 166.761 12.696H164.657L164.313 11.632C164.639 11.632 165.044 11.632 165.529 11.632C166.02 11.632 166.479 11.632 166.905 11.632C167.572 11.632 168.129 11.7253 168.577 11.912C169.025 12.0933 169.361 12.376 169.585 12.76C169.809 13.1387 169.921 13.6267 169.921 14.224C169.921 14.7627 169.82 15.2427 169.617 15.664C169.42 16.08 169.089 16.408 168.625 16.648C168.161 16.8827 167.532 17 166.737 17C166.103 17 165.508 17 164.953 17C164.404 17 163.932 17 163.537 17ZM178.9 17.176C178.249 17.176 177.679 17.064 177.188 16.84C176.703 16.6107 176.295 16.3013 175.964 15.912C175.633 15.5227 175.383 15.0773 175.212 14.576C175.047 14.0693 174.964 13.5387 174.964 12.984C174.964 12.1893 175.119 11.4853 175.428 10.872C175.743 10.2533 176.193 9.76533 176.78 9.408C177.367 9.05067 178.065 8.872 178.876 8.872C179.5 8.872 180.055 8.976 180.54 9.184C181.031 9.392 181.444 9.68267 181.78 10.056C182.116 10.4293 182.372 10.8667 182.548 11.368C182.724 11.864 182.812 12.4027 182.812 12.984C182.812 13.768 182.652 14.4773 182.332 15.112C182.017 15.7467 181.567 16.2507 180.98 16.624C180.393 16.992 179.7 17.176 178.9 17.176ZM171.756 17C171.756 16.408 171.756 15.84 171.756 15.296C171.756 14.752 171.756 14.152 171.756 13.496V12.696C171.756 12.2213 171.756 11.784 171.756 11.384C171.756 10.9787 171.756 10.5893 171.756 10.216C171.756 9.83733 171.756 9.45333 171.756 9.064L173.068 9.008C173.068 9.40267 173.068 9.792 173.068 10.176C173.068 10.56 173.068 10.9573 173.068 11.368C173.068 11.7733 173.068 12.216 173.068 12.696V13.496C173.068 14.152 173.068 14.752 173.068 15.296C173.068 15.84 173.068 16.408 173.068 17H171.756ZM172.54 13.528V12.456H175.62V13.528H172.54ZM178.892 16.024C179.463 16.024 179.937 15.88 180.316 15.592C180.7 15.304 180.985 14.928 181.172 14.464C181.364 14 181.46 13.5067 181.46 12.984C181.46 12.3867 181.353 11.8667 181.14 11.424C180.932 10.9813 180.633 10.6373 180.244 10.392C179.86 10.1467 179.409 10.024 178.892 10.024C178.316 10.024 177.833 10.1547 177.444 10.416C177.06 10.6773 176.772 11.032 176.58 11.48C176.388 11.928 176.292 12.4293 176.292 12.984C176.292 13.5067 176.385 14 176.572 14.464C176.759 14.928 177.044 15.304 177.428 15.592C177.812 15.88 178.3 16.024 178.892 16.024Z" fill="#818499"/>
<rect x="0.5" y="38.5" width="160.5" height="47" rx="23.5" stroke="#818499" stroke-opacity="0.12"/>
<g clip-path="url(#clip0_221_3013)">
<path d="M59.25 62C59.25 56.4769 54.7731 52 49.25 52C43.7269 52 39.25 56.4769 39.25 62C39.25 67.5231 43.7269 72 49.25 72C54.7731 72 59.25 67.5231 59.25 62Z" fill="#F8604A"/>
<path d="M52.7495 68.0179H50.7326V57.601H49.7164C47.9826 57.601 47.1164 58.4679 47.1164 59.7679C47.1164 61.2179 47.6995 61.9341 48.9995 62.801L50.0164 63.5179L47.1326 68.001H44.8164L47.5664 63.951C45.9826 62.801 45.1164 61.7841 45.1164 59.901C45.1164 57.5841 46.6995 56.001 49.7495 56.001H52.7495V68.0179Z" fill="white"/>
</g>
<path d="M67.666 68C67.8847 67.7067 68.1327 67.3707 68.41 66.992C68.6927 66.6133 68.9833 66.2267 69.282 65.832C69.5807 65.432 69.858 65.0587 70.114 64.712L71.818 62.44L72.394 63.232C71.6793 63.232 71.074 63.1413 70.578 62.96C70.0873 62.7787 69.69 62.5307 69.386 62.216C69.0873 61.896 68.8687 61.528 68.73 61.112C68.5913 60.696 68.522 60.248 68.522 59.768C68.522 58.9893 68.674 58.368 68.978 57.904C69.2873 57.44 69.7433 57.1067 70.346 56.904C70.9487 56.696 71.6953 56.592 72.586 56.592C73.1193 56.592 73.6393 56.592 74.146 56.592C74.658 56.592 75.1327 56.592 75.57 56.592C76.0073 56.592 76.386 56.592 76.706 56.592C76.706 57.2213 76.706 57.8347 76.706 58.432C76.706 59.0293 76.706 59.688 76.706 60.408V64.248C76.706 64.9573 76.706 65.6027 76.706 66.184C76.706 66.7653 76.706 67.3707 76.706 68H74.85C74.85 67.3707 74.85 66.7653 74.85 66.184C74.85 65.6027 74.85 64.9573 74.85 64.248V60.696C74.85 59.9653 74.85 59.304 74.85 58.712C74.85 58.12 74.85 57.5093 74.85 56.88L75.834 58.12H72.65C72.4047 58.12 72.154 58.1387 71.898 58.176C71.642 58.2133 71.4047 58.2933 71.186 58.416C70.9673 58.5333 70.7913 58.7173 70.658 58.968C70.53 59.2133 70.466 59.5467 70.466 59.968C70.466 60.7413 70.682 61.288 71.114 61.608C71.546 61.9227 72.194 62.08 73.058 62.08H75.194V63.608H72.514L73.682 62.64L71.69 65.384C71.386 65.7947 71.0767 66.2187 70.762 66.656C70.4473 67.088 70.1193 67.536 69.778 68H67.666ZM79.1985 68C79.1985 67.4187 79.1985 66.856 79.1985 66.312C79.1985 65.768 79.1985 65.168 79.1985 64.512V63.712C79.1985 63.2213 79.1985 62.7707 79.1985 62.36C79.1985 61.9493 79.1985 61.5573 79.1985 61.184C79.1985 60.8107 79.1985 60.432 79.1985 60.048L80.8865 59.984C80.8865 60.3733 80.8865 60.76 80.8865 61.144C80.8865 61.5227 80.8865 61.92 80.8865 62.336C80.8865 62.752 80.8865 63.2107 80.8865 63.712V64.512C80.8865 65.168 80.8865 65.768 80.8865 66.312C80.8865 66.856 80.8865 67.4187 80.8865 68H79.1985ZM80.2145 64.672V63.32H85.1265V64.672H80.2145ZM84.3985 68C84.3985 67.4187 84.3985 66.856 84.3985 66.312C84.3985 65.768 84.3985 65.168 84.3985 64.512V63.712C84.3985 63.2213 84.3985 62.7707 84.3985 62.36C84.3985 61.9493 84.3985 61.5573 84.3985 61.184C84.3985 60.8107 84.3985 60.432 84.3985 60.048H86.0865C86.0865 60.432 86.0865 60.8107 86.0865 61.184C86.0865 61.5573 86.0865 61.9493 86.0865 62.36C86.0865 62.7707 86.0865 63.2213 86.0865 63.712V64.512C86.0865 65.168 86.0865 65.768 86.0865 66.312C86.0865 66.856 86.0865 67.4187 86.0865 68H84.3985ZM93.5948 67.728C93.5948 67.376 93.5948 67.04 93.5948 66.72C93.5948 66.3947 93.5948 66.056 93.5948 65.704C93.5948 65.3467 93.5948 64.9493 93.5948 64.512V63.712C93.5948 63.248 93.5948 62.8293 93.5948 62.456C93.5948 62.0827 93.5948 61.7253 93.5948 61.384C93.5948 61.0373 93.5948 60.68 93.5948 60.312L94.3308 61.416H90.1228L90.8988 60.312C90.8828 60.6533 90.8641 60.9867 90.8428 61.312C90.8268 61.6373 90.8081 61.976 90.7868 62.328C90.7708 62.6747 90.7521 63.0533 90.7308 63.464C90.7094 63.9333 90.6588 64.3813 90.5788 64.808C90.5041 65.2293 90.4001 65.6187 90.2668 65.976C90.1334 66.3333 89.9708 66.6507 89.7788 66.928L88.1228 66.704C88.2668 66.5707 88.4134 66.368 88.5628 66.096C88.7174 65.824 88.8534 65.4533 88.9708 64.984C89.0934 64.5093 89.1761 63.9093 89.2188 63.184C89.2614 62.5547 89.2961 61.9973 89.3228 61.512C89.3548 61.0213 89.3841 60.5333 89.4108 60.048H95.2828C95.2828 60.432 95.2828 60.8133 95.2828 61.192C95.2828 61.5653 95.2828 61.9573 95.2828 62.368C95.2828 62.7733 95.2828 63.2213 95.2828 63.712V64.512C95.2828 65.1733 95.2828 65.744 95.2828 66.224C95.2828 66.704 95.2828 67.2053 95.2828 67.728H93.5948ZM87.3628 70.184C87.3628 69.896 87.3628 69.608 87.3628 69.32C87.3628 69.0373 87.3628 68.752 87.3628 68.464C87.3628 68.1707 87.3628 67.8667 87.3628 67.552C87.3628 67.2373 87.3628 66.928 87.3628 66.624C87.8374 66.624 88.3148 66.624 88.7948 66.624C89.2748 66.624 89.7441 66.624 90.2028 66.624H93.6508C94.1041 66.624 94.5708 66.624 95.0508 66.624C95.5361 66.624 96.0134 66.624 96.4828 66.624C96.4828 66.928 96.4828 67.2373 96.4828 67.552C96.4828 67.8667 96.4828 68.1707 96.4828 68.464C96.4828 68.752 96.4828 69.0373 96.4828 69.32C96.4828 69.608 96.4828 69.896 96.4828 70.184H95.0108L94.9388 67.784L95.2587 68H88.5948L88.9228 67.784L88.8508 70.184H87.3628ZM101.734 68.184C100.758 68.184 99.955 68.0027 99.3256 67.64C98.6963 67.2773 98.2296 66.7813 97.9256 66.152C97.627 65.5227 97.4776 64.8 97.4776 63.984C97.4776 63.1787 97.6216 62.464 97.9096 61.84C98.203 61.216 98.6296 60.7307 99.1896 60.384C99.7496 60.032 100.427 59.856 101.222 59.856C101.91 59.856 102.502 59.9867 102.998 60.248C103.494 60.504 103.875 60.888 104.142 61.4C104.408 61.912 104.542 62.5467 104.542 63.304C104.542 63.5067 104.536 63.6907 104.526 63.856C104.52 64.016 104.504 64.176 104.478 64.336L102.982 63.68C102.992 63.6 103 63.5227 103.006 63.448C103.011 63.368 103.014 63.2933 103.014 63.224C103.014 62.568 102.848 62.0613 102.518 61.704C102.192 61.3413 101.766 61.16 101.238 61.16C100.827 61.16 100.47 61.272 100.166 61.496C99.8616 61.72 99.6243 62.0267 99.4536 62.416C99.2883 62.8053 99.2056 63.2533 99.2056 63.76V64.016C99.2056 64.5813 99.3016 65.0667 99.4936 65.472C99.691 65.8773 99.9896 66.1893 100.39 66.408C100.795 66.6267 101.304 66.736 101.918 66.736C102.152 66.736 102.408 66.7173 102.686 66.68C102.968 66.6373 103.251 66.5733 103.534 66.488C103.816 66.4027 104.083 66.2933 104.334 66.16L104.398 67.648C104.195 67.7547 103.958 67.848 103.686 67.928C103.414 68.008 103.112 68.0693 102.782 68.112C102.456 68.16 102.107 68.184 101.734 68.184ZM98.1656 64.336V63.168L103.454 63.104L104.478 63.528V64.336H98.1656ZM106.339 68C106.339 67.4187 106.339 66.856 106.339 66.312C106.339 65.768 106.339 65.168 106.339 64.512V63.648C106.339 63.1573 106.339 62.712 106.339 62.312C106.339 61.912 106.339 61.5307 106.339 61.168C106.339 60.8053 106.339 60.432 106.339 60.048L108.051 59.984C108.051 60.5653 108.051 61.136 108.051 61.696C108.051 62.256 108.051 62.8427 108.051 63.456V64.816C108.051 65.392 108.051 65.9307 108.051 66.432C108.051 66.9333 108.051 67.456 108.051 68H106.339ZM111.547 68C111.232 67.648 110.915 67.2987 110.595 66.952C110.28 66.6 109.966 66.2533 109.651 65.912L108.451 64.592H107.875V63.408H108.515L109.539 62.224C109.854 61.8613 110.168 61.4987 110.483 61.136C110.798 60.768 111.11 60.4053 111.419 60.048H113.467C113.035 60.5173 112.606 60.9867 112.179 61.456C111.752 61.9253 111.328 62.3947 110.907 62.864L109.635 64.248L109.571 63.456L111.075 65.16C111.512 65.6347 111.952 66.1093 112.395 66.584C112.838 67.0587 113.275 67.5307 113.707 68H111.547ZM118.41 68.16C117.535 68.16 116.791 67.9813 116.178 67.624C115.57 67.2613 115.106 66.768 114.786 66.144C114.466 65.52 114.306 64.8133 114.306 64.024C114.306 63.2293 114.455 62.5173 114.754 61.888C115.058 61.2587 115.503 60.7627 116.09 60.4C116.682 60.0373 117.407 59.856 118.266 59.856C118.575 59.856 118.882 59.8827 119.186 59.936C119.495 59.984 119.786 60.0533 120.058 60.144C120.33 60.2293 120.57 60.3307 120.778 60.448L120.634 61.968C120.335 61.7973 120.055 61.6667 119.794 61.576C119.538 61.4853 119.3 61.424 119.082 61.392C118.863 61.3547 118.663 61.336 118.482 61.336C117.746 61.336 117.156 61.576 116.714 62.056C116.271 62.5307 116.05 63.1733 116.05 63.984C116.05 64.5067 116.151 64.9733 116.354 65.384C116.556 65.7947 116.858 66.12 117.258 66.36C117.663 66.6 118.164 66.72 118.762 66.72C118.98 66.72 119.199 66.7013 119.418 66.664C119.636 66.6213 119.85 66.56 120.058 66.48C120.271 66.3947 120.476 66.288 120.674 66.16L120.794 67.688C120.612 67.7733 120.404 67.8533 120.17 67.928C119.935 67.9973 119.671 68.0533 119.378 68.096C119.084 68.1387 118.762 68.16 118.41 68.16Z" fill="#0B102B"/>
<rect x="174" y="38.5" width="160.5" height="47" rx="23.5" stroke="#818499" stroke-opacity="0.12"/>
<g clip-path="url(#clip1_221_3013)">
<path d="M223.75 60.1818V64.0545H229.132C228.895 65.3 228.186 66.3546 227.123 67.0636L230.368 69.5818C232.259 67.8364 233.35 65.2728 233.35 62.2273C233.35 61.5183 233.286 60.8364 233.168 60.1819L223.75 60.1818Z" fill="#4285F4"/>
<path d="M218.146 63.9033L217.414 64.4637L214.823 66.4818C216.468 69.7454 219.841 72 223.75 72C226.45 72 228.713 71.1091 230.368 69.5818L227.123 67.0636C226.232 67.6636 225.095 68.0273 223.75 68.0273C221.15 68.0273 218.941 66.2728 218.15 63.9091L218.146 63.9033Z" fill="#34A853"/>
<path d="M214.823 57.5182C214.141 58.8636 213.75 60.3818 213.75 61.9999C213.75 63.6181 214.141 65.1364 214.823 66.4818C214.823 66.4908 218.15 63.8999 218.15 63.8999C217.95 63.2999 217.832 62.6636 217.832 61.9998C217.832 61.3361 217.95 60.6998 218.15 60.0998L214.823 57.5182Z" fill="#FBBC05"/>
<path d="M223.75 55.9818C225.223 55.9818 226.532 56.4909 227.577 57.4727L230.441 54.6091C228.704 52.991 226.45 52 223.75 52C219.841 52 216.468 54.2454 214.823 57.5182L218.15 60.0998C218.941 57.7361 221.15 55.9818 223.75 55.9818Z" fill="#EA4335"/>
</g>
<path d="M248.582 68.184C247.595 68.184 246.723 68.0373 245.966 67.744C245.209 67.4453 244.571 67.032 244.054 66.504C243.537 65.9707 243.145 65.3467 242.878 64.632C242.611 63.912 242.478 63.128 242.478 62.28C242.478 61.128 242.715 60.1093 243.19 59.224C243.665 58.3333 244.337 57.6373 245.206 57.136C246.081 56.6293 247.115 56.376 248.31 56.376C248.71 56.376 249.099 56.4027 249.478 56.456C249.857 56.5093 250.214 56.5813 250.55 56.672C250.886 56.7573 251.195 56.8533 251.478 56.96C251.766 57.0667 252.014 57.1733 252.222 57.28L252.07 59.056C251.627 58.8053 251.195 58.6027 250.774 58.448C250.358 58.2933 249.955 58.1813 249.566 58.112C249.177 58.0373 248.803 58 248.446 58C247.859 58 247.321 58.096 246.83 58.288C246.345 58.48 245.921 58.76 245.558 59.128C245.195 59.496 244.915 59.9467 244.718 60.48C244.521 61.008 244.422 61.6107 244.422 62.288C244.422 62.8907 244.507 63.456 244.678 63.984C244.849 64.5067 245.11 64.968 245.462 65.368C245.814 65.768 246.262 66.08 246.806 66.304C247.35 66.528 247.993 66.64 248.734 66.64C249.043 66.64 249.347 66.624 249.646 66.592C249.945 66.56 250.235 66.512 250.518 66.448C250.806 66.3787 251.089 66.2933 251.366 66.192C251.649 66.0853 251.923 65.9573 252.19 65.808L252.414 67.528C252.233 67.608 252.003 67.688 251.726 67.768C251.449 67.8427 251.139 67.912 250.798 67.976C250.462 68.04 250.105 68.0907 249.726 68.128C249.353 68.1653 248.971 68.184 248.582 68.184ZM250.638 67.56C250.638 66.984 250.638 66.48 250.638 66.048C250.638 65.616 250.638 65.184 250.638 64.752C250.638 64.2453 250.638 63.7973 250.638 63.408C250.638 63.0133 250.638 62.6133 250.638 62.208H252.414C252.414 62.6133 252.414 63.0133 252.414 63.408C252.414 63.7973 252.414 64.2453 252.414 64.752C252.414 65.184 252.414 65.616 252.414 66.048C252.414 66.4747 252.414 66.968 252.414 67.528L250.638 67.56ZM258.269 68.192C257.586 68.192 256.989 68.0773 256.477 67.848C255.965 67.6187 255.536 67.3093 255.189 66.92C254.848 66.5253 254.592 66.0773 254.421 65.576C254.25 65.0693 254.165 64.5387 254.165 63.984C254.165 63.1893 254.325 62.4827 254.645 61.864C254.965 61.24 255.429 60.7493 256.037 60.392C256.645 60.0293 257.378 59.848 258.237 59.848C258.893 59.848 259.474 59.952 259.981 60.16C260.488 60.368 260.912 60.6613 261.253 61.04C261.6 61.4133 261.861 61.8507 262.037 62.352C262.213 62.8533 262.301 63.3973 262.301 63.984C262.301 64.7787 262.141 65.4933 261.821 66.128C261.501 66.7627 261.037 67.2667 260.429 67.64C259.826 68.008 259.106 68.192 258.269 68.192ZM258.261 66.752C258.773 66.752 259.2 66.6213 259.541 66.36C259.882 66.0933 260.136 65.7493 260.301 65.328C260.472 64.9067 260.557 64.4587 260.557 63.984C260.557 63.4347 260.461 62.96 260.269 62.56C260.082 62.1547 259.816 61.8427 259.469 61.624C259.128 61.4 258.722 61.288 258.253 61.288C257.746 61.288 257.317 61.408 256.965 61.648C256.618 61.8827 256.354 62.2053 256.173 62.616C255.997 63.0213 255.909 63.4773 255.909 63.984C255.909 64.4587 255.994 64.9067 256.165 65.328C256.341 65.7493 256.602 66.0933 256.949 66.36C257.301 66.6213 257.738 66.752 258.261 66.752ZM267.832 68.192C267.149 68.192 266.552 68.0773 266.04 67.848C265.528 67.6187 265.098 67.3093 264.752 66.92C264.41 66.5253 264.154 66.0773 263.984 65.576C263.813 65.0693 263.728 64.5387 263.728 63.984C263.728 63.1893 263.888 62.4827 264.208 61.864C264.528 61.24 264.992 60.7493 265.6 60.392C266.208 60.0293 266.941 59.848 267.8 59.848C268.456 59.848 269.037 59.952 269.544 60.16C270.05 60.368 270.474 60.6613 270.816 61.04C271.162 61.4133 271.424 61.8507 271.6 62.352C271.776 62.8533 271.864 63.3973 271.864 63.984C271.864 64.7787 271.704 65.4933 271.384 66.128C271.064 66.7627 270.6 67.2667 269.992 67.64C269.389 68.008 268.669 68.192 267.832 68.192ZM267.824 66.752C268.336 66.752 268.762 66.6213 269.104 66.36C269.445 66.0933 269.698 65.7493 269.864 65.328C270.034 64.9067 270.12 64.4587 270.12 63.984C270.12 63.4347 270.024 62.96 269.832 62.56C269.645 62.1547 269.378 61.8427 269.032 61.624C268.69 61.4 268.285 61.288 267.816 61.288C267.309 61.288 266.88 61.408 266.528 61.648C266.181 61.8827 265.917 62.2053 265.736 62.616C265.56 63.0213 265.472 63.4773 265.472 63.984C265.472 64.4587 265.557 64.9067 265.728 65.328C265.904 65.7493 266.165 66.0933 266.512 66.36C266.864 66.6213 267.301 66.752 267.824 66.752ZM276.458 71.256C275.866 71.256 275.37 71.2027 274.97 71.096C274.57 70.9947 274.25 70.8533 274.01 70.672C273.775 70.496 273.607 70.296 273.506 70.072C273.41 69.8533 273.362 69.6293 273.362 69.4C273.362 69.0427 273.447 68.744 273.618 68.504C273.789 68.2693 273.989 68.0853 274.218 67.952C274.447 67.8187 274.645 67.7253 274.81 67.672V67.536C274.725 67.5093 274.618 67.4533 274.49 67.368C274.367 67.2773 274.255 67.152 274.154 66.992C274.053 66.8267 274.002 66.6213 274.002 66.376C274.002 66.1947 274.034 66.024 274.098 65.864C274.167 65.704 274.271 65.56 274.41 65.432C274.554 65.2987 274.738 65.184 274.962 65.088V64.952C274.829 64.8987 274.666 64.8107 274.474 64.688C274.282 64.5653 274.093 64.4053 273.906 64.208C273.725 64.0107 273.57 63.768 273.442 63.48C273.319 63.192 273.258 62.8533 273.258 62.464C273.258 61.9573 273.383 61.5067 273.634 61.112C273.885 60.7173 274.25 60.4107 274.73 60.192C275.21 59.968 275.791 59.856 276.474 59.856C276.741 59.856 276.975 59.8693 277.178 59.896C277.381 59.9227 277.591 59.952 277.81 59.984C278.029 60.0107 278.298 60.024 278.618 60.024H280.978V61.256C280.466 61.256 279.967 61.256 279.482 61.256C279.002 61.256 278.511 61.256 278.01 61.256L278.482 60.472C278.903 60.696 279.21 60.9867 279.402 61.344C279.594 61.7013 279.69 62.1093 279.69 62.568C279.69 63.1013 279.578 63.552 279.354 63.92C279.135 64.2827 278.831 64.576 278.442 64.8C278.053 65.024 277.605 65.192 277.098 65.304C276.581 65.4267 276.197 65.536 275.946 65.632C275.701 65.7227 275.578 65.8587 275.578 66.04C275.578 66.168 275.631 66.2667 275.738 66.336C275.845 66.4053 276.01 66.456 276.234 66.488C276.458 66.52 276.751 66.536 277.114 66.536H277.45C278.165 66.536 278.759 66.5947 279.234 66.712C279.709 66.824 280.063 67.0187 280.298 67.296C280.538 67.5733 280.658 67.952 280.658 68.432C280.658 68.9227 280.533 69.3467 280.282 69.704C280.037 70.0613 279.706 70.3547 279.29 70.584C278.874 70.8133 278.421 70.9813 277.93 71.088C277.439 71.2 276.949 71.256 276.458 71.256ZM276.634 69.92C277.173 69.92 277.621 69.848 277.978 69.704C278.335 69.5653 278.602 69.4 278.778 69.208C278.954 69.0213 279.042 68.856 279.042 68.712C279.042 68.5413 278.989 68.3973 278.882 68.28C278.775 68.1627 278.575 68.072 278.282 68.008C277.989 67.9493 277.565 67.92 277.01 67.92H276.73C276.447 67.9307 276.167 67.9813 275.89 68.072C275.613 68.168 275.381 68.2933 275.194 68.448C275.013 68.608 274.922 68.7893 274.922 68.992C274.922 69.1093 274.951 69.224 275.01 69.336C275.074 69.448 275.173 69.5467 275.306 69.632C275.445 69.7227 275.623 69.792 275.842 69.84C276.061 69.8933 276.325 69.92 276.634 69.92ZM276.402 64.112C276.567 64.0853 276.749 64.0453 276.946 63.992C277.143 63.9333 277.33 63.8507 277.506 63.744C277.682 63.6373 277.826 63.4987 277.938 63.328C278.05 63.1573 278.106 62.9467 278.106 62.696C278.106 62.36 278.021 62.088 277.85 61.88C277.679 61.6667 277.466 61.5093 277.21 61.408C276.959 61.3067 276.706 61.256 276.45 61.256C276.178 61.256 275.919 61.3067 275.674 61.408C275.434 61.5093 275.234 61.6613 275.074 61.864C274.919 62.0667 274.842 62.3147 274.842 62.608C274.842 62.896 274.917 63.144 275.066 63.352C275.215 63.56 275.407 63.728 275.642 63.856C275.882 63.984 276.135 64.0693 276.402 64.112ZM282.529 68C282.529 67.4187 282.529 66.856 282.529 66.312C282.529 65.768 282.529 65.168 282.529 64.512V60.104C282.529 59.4373 282.529 58.7867 282.529 58.152C282.529 57.5173 282.529 56.896 282.529 56.288L284.241 56.104C284.241 56.744 284.241 57.392 284.241 58.048C284.241 58.6987 284.241 59.384 284.241 60.104V64.512C284.241 65.168 284.241 65.768 284.241 66.312C284.241 66.856 284.241 67.4187 284.241 68H282.529ZM290.437 68.184C289.461 68.184 288.658 68.0027 288.029 67.64C287.399 67.2773 286.933 66.7813 286.629 66.152C286.33 65.5227 286.181 64.8 286.181 63.984C286.181 63.1787 286.325 62.464 286.613 61.84C286.906 61.216 287.333 60.7307 287.893 60.384C288.453 60.032 289.13 59.856 289.925 59.856C290.613 59.856 291.205 59.9867 291.701 60.248C292.197 60.504 292.578 60.888 292.845 61.4C293.111 61.912 293.245 62.5467 293.245 63.304C293.245 63.5067 293.239 63.6907 293.229 63.856C293.223 64.016 293.207 64.176 293.181 64.336L291.685 63.68C291.695 63.6 291.703 63.5227 291.709 63.448C291.714 63.368 291.717 63.2933 291.717 63.224C291.717 62.568 291.551 62.0613 291.221 61.704C290.895 61.3413 290.469 61.16 289.941 61.16C289.53 61.16 289.173 61.272 288.869 61.496C288.565 61.72 288.327 62.0267 288.157 62.416C287.991 62.8053 287.909 63.2533 287.909 63.76V64.016C287.909 64.5813 288.005 65.0667 288.197 65.472C288.394 65.8773 288.693 66.1893 289.093 66.408C289.498 66.6267 290.007 66.736 290.621 66.736C290.855 66.736 291.111 66.7173 291.389 66.68C291.671 66.6373 291.954 66.5733 292.237 66.488C292.519 66.4027 292.786 66.2933 293.037 66.16L293.101 67.648C292.898 67.7547 292.661 67.848 292.389 67.928C292.117 68.008 291.815 68.0693 291.485 68.112C291.159 68.16 290.81 68.184 290.437 68.184ZM286.869 64.336V63.168L292.157 63.104L293.181 63.528V64.336H286.869Z" fill="#0B102B"/>
<rect x="0.5" y="98.5" width="160.5" height="47" rx="23.5" stroke="#818499" stroke-opacity="0.12"/>
<mask id="mask0_221_3013" style="mask-type:luminance" maskUnits="userSpaceOnUse" x="55" y="112" width="21" height="20">
<path d="M75.75 112H55.75V132H75.75V112Z" fill="white"/>
</mask>
<g mask="url(#mask0_221_3013)">
<path d="M55.75 121.6C55.75 117.075 55.75 114.812 57.1559 113.406C58.5618 112 60.8245 112 65.35 112H66.15C70.6755 112 72.9382 112 74.3441 113.406C75.75 114.812 75.75 117.075 75.75 121.6V122.4C75.75 126.925 75.75 129.188 74.3441 130.594C72.9382 132 70.6755 132 66.15 132H65.35C60.8245 132 58.5618 132 57.1559 130.594C55.75 129.188 55.75 126.925 55.75 122.4V121.6Z" fill="#0077FF"/>
<path d="M66.3917 126.408C61.8333 126.408 59.2333 123.283 59.125 118.083H61.4083C61.4833 121.9 63.1666 123.516 64.5 123.85V118.083H66.65V121.375C67.9667 121.233 69.3499 119.733 69.8165 118.083H71.9666C71.6083 120.116 70.1083 121.616 69.0416 122.233C70.1083 122.733 71.8167 124.041 72.4667 126.408H70.0999C69.5916 124.825 68.325 123.6 66.65 123.433V126.408H66.3917Z" fill="white"/>
</g>
<path d="M88.814 128C88.2647 128 87.7553 128 87.286 128C86.822 128 86.4033 128 86.03 128C85.662 128 85.35 128 85.094 128C85.094 127.371 85.094 126.765 85.094 126.184C85.094 125.603 85.094 124.957 85.094 124.248V120.4C85.094 119.685 85.094 119.029 85.094 118.432C85.094 117.835 85.094 117.221 85.094 116.592C85.7127 116.592 86.398 116.592 87.15 116.592C87.902 116.592 88.6673 116.592 89.446 116.592C90.15 116.592 90.7473 116.656 91.238 116.784C91.7287 116.907 92.1233 117.085 92.422 117.32C92.7207 117.549 92.9393 117.829 93.078 118.16C93.2167 118.485 93.286 118.851 93.286 119.256C93.286 119.741 93.1953 120.165 93.014 120.528C92.838 120.891 92.5953 121.189 92.286 121.424C91.982 121.659 91.6353 121.832 91.246 121.944V122.112C91.662 122.197 92.046 122.344 92.398 122.552C92.75 122.755 93.0327 123.043 93.246 123.416C93.4593 123.789 93.566 124.264 93.566 124.84C93.566 125.299 93.4887 125.723 93.334 126.112C93.1847 126.496 92.9313 126.829 92.574 127.112C92.2167 127.395 91.7313 127.613 91.118 127.768C90.5047 127.923 89.7367 128 88.814 128ZM86.934 126.472H88.974C89.6033 126.472 90.1127 126.403 90.502 126.264C90.8913 126.12 91.174 125.915 91.35 125.648C91.5313 125.381 91.622 125.061 91.622 124.688C91.622 124.085 91.406 123.651 90.974 123.384C90.5473 123.112 89.9447 122.976 89.166 122.976H86.51V121.504H89.118C89.6353 121.504 90.0567 121.424 90.382 121.264C90.7127 121.099 90.9553 120.883 91.11 120.616C91.2647 120.344 91.342 120.045 91.342 119.72C91.342 119.176 91.1713 118.773 90.83 118.512C90.4887 118.251 89.9793 118.12 89.302 118.12H86.934C86.934 118.547 86.934 118.973 86.934 119.4C86.934 119.827 86.934 120.299 86.934 120.816V123.856C86.934 124.357 86.934 124.816 86.934 125.232C86.934 125.643 86.934 126.056 86.934 126.472ZM102.356 128C101.902 127.467 101.478 126.965 101.084 126.496C100.689 126.027 100.302 125.568 99.9235 125.12L97.9955 122.84H97.2355V121.336H97.9795L99.6675 119.448C100.068 119.005 100.46 118.565 100.844 118.128C101.233 117.685 101.686 117.173 102.204 116.592H104.428C103.873 117.195 103.332 117.787 102.804 118.368C102.281 118.944 101.756 119.525 101.228 120.112L99.2275 122.32L99.1955 121.488L101.42 124.144C101.766 124.549 102.134 124.987 102.524 125.456C102.918 125.925 103.302 126.384 103.676 126.832C104.054 127.275 104.385 127.664 104.668 128H102.356ZM95.5395 128C95.5395 127.371 95.5395 126.765 95.5395 126.184C95.5395 125.603 95.5395 124.957 95.5395 124.248V120.408C95.5395 119.683 95.5395 119.024 95.5395 118.432C95.5395 117.84 95.5395 117.227 95.5395 116.592H97.4115C97.4115 117.227 97.4115 117.84 97.4115 118.432C97.4115 119.024 97.4115 119.683 97.4115 120.408V124.248C97.4115 124.957 97.4115 125.603 97.4115 126.184C97.4115 126.765 97.4115 127.371 97.4115 128H95.5395Z" fill="#0B102B"/>
<rect x="174" y="98.5" width="160.5" height="47" rx="23.5" stroke="#818499" stroke-opacity="0.12"/>
<path d="M233.123 116.289C231.303 116.155 229.759 117.306 228.898 117.306C228.024 117.306 226.676 116.318 225.248 116.345C223.372 116.373 221.642 117.437 220.675 119.117C218.726 122.499 220.177 127.51 222.075 130.255C223.004 131.596 224.111 133.107 225.565 133.052C226.965 132.997 227.495 132.146 229.187 132.146C230.879 132.146 231.356 133.052 232.836 133.025C234.343 132.997 235.298 131.656 236.219 130.307C237.286 128.751 237.724 127.244 237.75 127.164C237.717 127.151 234.813 126.037 234.784 122.692C234.757 119.895 237.067 118.55 237.172 118.485C235.861 116.555 233.836 116.342 233.123 116.289Z" fill="#0B102B"/>
<path d="M232.001 114.476C232.774 113.542 233.294 112.241 233.151 110.947C232.039 110.991 230.693 111.688 229.895 112.622C229.181 113.449 228.553 114.773 228.724 116.041C229.963 116.136 231.229 115.411 232.001 114.476Z" fill="#0B102B"/>
<path d="M246.174 128C246.387 127.387 246.611 126.741 246.846 126.064C247.081 125.387 247.307 124.744 247.526 124.136L248.886 120.216C249.137 119.512 249.361 118.877 249.558 118.312C249.755 117.741 249.955 117.168 250.158 116.592H252.598C252.806 117.184 253.006 117.763 253.198 118.328C253.395 118.893 253.617 119.525 253.862 120.224L255.214 124.152C255.433 124.781 255.657 125.429 255.886 126.096C256.121 126.757 256.342 127.392 256.55 128H254.598C254.39 127.355 254.177 126.693 253.958 126.016C253.739 125.333 253.531 124.688 253.334 124.08L251.446 118.24H251.286L249.374 124.024C249.166 124.653 248.95 125.312 248.726 126C248.502 126.688 248.283 127.355 248.07 128H246.174ZM248.518 125.312L248.694 123.872H254.23L254.374 125.312H248.518ZM258.185 131.128C258.185 130.547 258.185 129.973 258.185 129.408C258.185 128.848 258.185 128.24 258.185 127.584V123.712C258.185 123.12 258.185 122.517 258.185 121.904C258.185 121.285 258.185 120.667 258.185 120.048L259.721 119.952L259.769 121.008H259.929C260.084 120.784 260.281 120.584 260.521 120.408C260.761 120.232 261.033 120.096 261.337 120C261.646 119.899 261.982 119.848 262.345 119.848C263.065 119.848 263.673 120.029 264.169 120.392C264.67 120.755 265.049 121.251 265.305 121.88C265.566 122.509 265.697 123.216 265.697 124C265.697 124.741 265.574 125.432 265.329 126.072C265.089 126.707 264.724 127.219 264.233 127.608C263.742 127.997 263.124 128.192 262.377 128.192C262.03 128.192 261.713 128.147 261.425 128.056C261.142 127.965 260.884 127.835 260.649 127.664C260.42 127.493 260.212 127.288 260.025 127.048H259.897V127.672C259.897 128.285 259.897 128.859 259.897 129.392C259.897 129.931 259.897 130.491 259.897 131.072L258.185 131.128ZM261.793 126.696C262.289 126.696 262.697 126.571 263.017 126.32C263.337 126.064 263.572 125.733 263.721 125.328C263.87 124.917 263.945 124.48 263.945 124.016C263.945 123.531 263.865 123.088 263.705 122.688C263.55 122.283 263.313 121.96 262.993 121.72C262.673 121.48 262.265 121.36 261.769 121.36C261.524 121.36 261.284 121.397 261.049 121.472C260.82 121.541 260.606 121.648 260.409 121.792C260.212 121.931 260.041 122.107 259.897 122.32V125.552C260.036 125.787 260.196 125.989 260.377 126.16C260.558 126.331 260.766 126.464 261.001 126.56C261.236 126.651 261.5 126.696 261.793 126.696ZM267.654 131.128C267.654 130.547 267.654 129.973 267.654 129.408C267.654 128.848 267.654 128.24 267.654 127.584V123.712C267.654 123.12 267.654 122.517 267.654 121.904C267.654 121.285 267.654 120.667 267.654 120.048L269.19 119.952L269.238 121.008H269.398C269.553 120.784 269.75 120.584 269.99 120.408C270.23 120.232 270.502 120.096 270.806 120C271.115 119.899 271.451 119.848 271.814 119.848C272.534 119.848 273.142 120.029 273.638 120.392C274.139 120.755 274.518 121.251 274.774 121.88C275.035 122.509 275.166 123.216 275.166 124C275.166 124.741 275.043 125.432 274.798 126.072C274.558 126.707 274.193 127.219 273.702 127.608C273.211 127.997 272.593 128.192 271.846 128.192C271.499 128.192 271.182 128.147 270.894 128.056C270.611 127.965 270.353 127.835 270.118 127.664C269.889 127.493 269.681 127.288 269.494 127.048H269.366V127.672C269.366 128.285 269.366 128.859 269.366 129.392C269.366 129.931 269.366 130.491 269.366 131.072L267.654 131.128ZM271.262 126.696C271.758 126.696 272.166 126.571 272.486 126.32C272.806 126.064 273.041 125.733 273.19 125.328C273.339 124.917 273.414 124.48 273.414 124.016C273.414 123.531 273.334 123.088 273.174 122.688C273.019 122.283 272.782 121.96 272.462 121.72C272.142 121.48 271.734 121.36 271.238 121.36C270.993 121.36 270.753 121.397 270.518 121.472C270.289 121.541 270.075 121.648 269.878 121.792C269.681 121.931 269.51 122.107 269.366 122.32V125.552C269.505 125.787 269.665 125.989 269.846 126.16C270.027 126.331 270.235 126.464 270.47 126.56C270.705 126.651 270.969 126.696 271.262 126.696ZM277.123 128C277.123 127.419 277.123 126.856 277.123 126.312C277.123 125.768 277.123 125.168 277.123 124.512V120.104C277.123 119.437 277.123 118.787 277.123 118.152C277.123 117.517 277.123 116.896 277.123 116.288L278.835 116.104C278.835 116.744 278.835 117.392 278.835 118.048C278.835 118.699 278.835 119.384 278.835 120.104V124.512C278.835 125.168 278.835 125.768 278.835 126.312C278.835 126.856 278.835 127.419 278.835 128H277.123ZM285.031 128.184C284.055 128.184 283.252 128.003 282.623 127.64C281.993 127.277 281.527 126.781 281.223 126.152C280.924 125.523 280.775 124.8 280.775 123.984C280.775 123.179 280.919 122.464 281.207 121.84C281.5 121.216 281.927 120.731 282.487 120.384C283.047 120.032 283.724 119.856 284.519 119.856C285.207 119.856 285.799 119.987 286.295 120.248C286.791 120.504 287.172 120.888 287.439 121.4C287.705 121.912 287.839 122.547 287.839 123.304C287.839 123.507 287.833 123.691 287.823 123.856C287.817 124.016 287.801 124.176 287.775 124.336L286.279 123.68C286.289 123.6 286.297 123.523 286.303 123.448C286.308 123.368 286.311 123.293 286.311 123.224C286.311 122.568 286.145 122.061 285.815 121.704C285.489 121.341 285.063 121.16 284.535 121.16C284.124 121.16 283.767 121.272 283.463 121.496C283.159 121.72 282.921 122.027 282.751 122.416C282.585 122.805 282.503 123.253 282.503 123.76V124.016C282.503 124.581 282.599 125.067 282.791 125.472C282.988 125.877 283.287 126.189 283.687 126.408C284.092 126.627 284.601 126.736 285.215 126.736C285.449 126.736 285.705 126.717 285.983 126.68C286.265 126.637 286.548 126.573 286.831 126.488C287.113 126.403 287.38 126.293 287.631 126.16L287.695 127.648C287.492 127.755 287.255 127.848 286.983 127.928C286.711 128.008 286.409 128.069 286.079 128.112C285.753 128.16 285.404 128.184 285.031 128.184ZM281.463 124.336V123.168L286.751 123.104L287.775 123.528V124.336H281.463Z" fill="#0B102B"/>
<defs>
<clipPath id="clip0_221_3013">
<rect width="20" height="20" fill="white" transform="translate(39.25 52)"/>
</clipPath>
<clipPath id="clip1_221_3013">
<rect width="20" height="20" fill="white" transform="translate(213.75 52)"/>
</clipPath>
</defs>
</svg>
