<svg width="48" height="48" viewBox="0 0 48 48" fill="none" xmlns="http://www.w3.org/2000/svg">
<rect width="48" height="48" rx="24" fill="#F5F6FA"/>
<path d="M21.0684 14H26.9316C27.8529 14 28.3135 14 28.5997 14.2929C29.1334 14.8391 29.1334 17.1609 28.5997 17.7071C28.3135 18 27.8529 18 26.9316 18H21.0684C20.1471 18 19.6865 18 19.4003 17.7071C18.8666 17.1609 18.8666 14.8391 19.4003 14.2929C19.6865 14 20.1471 14 21.0684 14Z" stroke="#197FF2" stroke-width="1.5"/>
<path d="M20 18C20.1649 18.3299 20.2474 18.4948 20.3061 18.6557C20.6121 19.4952 20.5281 20.4273 20.0768 21.1985C19.9903 21.3463 19.8797 21.4938 19.6584 21.7888L19.2549 22.3268C18.8049 22.9269 18.5798 23.2269 18.4167 23.5556C18.252 23.8877 18.1342 24.241 18.0668 24.6055C18 24.9664 18 25.3414 18 26.0915V28C18 30.8284 18 32.2426 18.8787 33.1213C19.7574 34 21.1716 34 24 34C26.8284 34 28.2426 34 29.1213 33.1213C30 32.2426 30 30.8284 30 28V26.0915C30 25.3414 30 24.9664 29.9332 24.6055C29.8658 24.241 29.748 23.8877 29.5833 23.5556C29.4202 23.2269 29.1951 22.9269 28.7451 22.3268L28.3416 21.7888C28.1204 21.4938 28.0097 21.3463 27.9232 21.1985C27.4719 20.4273 27.3879 19.4952 27.6939 18.6557C27.7526 18.4948 27.8351 18.3299 28 18" stroke="#197FF2" stroke-width="1.5"/>
<path d="M24 25V30M21.5 27.5H26.5" stroke="#197FF2" stroke-width="1.5" stroke-linecap="round"/>
</svg>
