<svg width="20" height="20" viewBox="0 0 20 20" fill="none" xmlns="http://www.w3.org/2000/svg">
<path d="M7.55574 1.6665H12.4417C13.2094 1.6665 13.5933 1.6665 13.8318 1.91058C14.2765 2.36573 14.2765 4.30061 13.8318 4.75576C13.5933 4.99984 13.2094 4.99984 12.4417 4.99984H7.55574C6.78799 4.99984 6.40411 4.99984 6.16561 4.75576C5.72084 4.30061 5.72084 2.36573 6.16561 1.91058C6.40411 1.6665 6.78799 1.6665 7.55574 1.6665Z" stroke="#0B102B" stroke-width="1.5"/>
<path d="M6.66667 5C6.80411 5.27488 6.87284 5.41234 6.92172 5.54642C7.17676 6.24596 7.10671 7.02277 6.73065 7.6654C6.65858 7.78857 6.56637 7.91151 6.38197 8.15737L6.04577 8.60567C5.67072 9.10575 5.48319 9.35575 5.34728 9.62967C5.21 9.90642 5.11184 10.2008 5.05564 10.5046C5 10.8053 5 11.1178 5 11.7429V13.3333C5 15.6903 5 16.8688 5.73223 17.6011C6.46447 18.3333 7.64297 18.3333 10 18.3333C12.357 18.3333 13.5355 18.3333 14.2677 17.6011C15 16.8688 15 15.6903 15 13.3333V11.7429C15 11.1178 15 10.8053 14.9443 10.5046C14.8882 10.2008 14.79 9.90642 14.6527 9.62967C14.5168 9.35575 14.3292 9.10575 13.9542 8.60567L13.618 8.15737C13.4337 7.91151 13.3414 7.78857 13.2693 7.6654C12.8932 7.02277 12.8232 6.24596 13.0782 5.54642C13.1272 5.41234 13.1959 5.27489 13.3333 5" stroke="#0B102B" stroke-width="1.5"/>
<path d="M10.0013 10.8335V15.0002M7.91797 12.9168H12.0846" stroke="#0B102B" stroke-width="1.5" stroke-linecap="round"/>
</svg>
