<svg width="32" height="32" viewBox="0 0 32 32" fill="none" xmlns="http://www.w3.org/2000/svg">
<rect width="32" height="32" rx="16" fill="white"/>
<path d="M11.4813 18.9017C10.3023 19.6037 7.21114 21.0371 9.09389 22.8308C10.0136 23.707 11.0379 24.3337 12.3257 24.3337H19.6743C20.9621 24.3337 21.9864 23.707 22.9061 22.8308C24.7888 21.0371 21.6977 19.6037 20.5187 18.9017C17.754 17.2554 14.246 17.2554 11.4813 18.9017Z" stroke="#818499" stroke-width="1.5" stroke-linecap="round" stroke-linejoin="round"/>
<path d="M19.75 11.417C19.75 13.4881 18.0711 15.167 16 15.167C13.9289 15.167 12.25 13.4881 12.25 11.417C12.25 9.34593 13.9289 7.66699 16 7.66699C18.0711 7.66699 19.75 9.34593 19.75 11.417Z" stroke="#818499" stroke-width="1.5"/>
</svg>
