<svg width="413" height="60" viewBox="0 0 413 60" fill="none" xmlns="http://www.w3.org/2000/svg">
<path fill-rule="evenodd" clip-rule="evenodd" d="M30.5 0C13.9315 0 0.5 13.4315 0.5 30C0.5 46.5685 13.9315 60 30.5 60H382.5C399.069 60 412.5 46.5685 412.5 30C412.5 13.4315 399.069 0 382.5 0H30.5ZM28.96 42.06C30.4933 42.9533 32.3533 43.4 34.54 43.4C35.42 43.4 36.2267 43.3467 36.96 43.24C37.6933 43.1333 38.3533 42.9933 38.94 42.82C39.5267 42.6333 40.0467 42.4333 40.5 42.22L40.2 38.4C39.7067 38.72 39.1933 38.9867 38.66 39.2C38.14 39.4 37.6067 39.5533 37.06 39.66C36.5133 39.7533 35.9667 39.8 35.42 39.8C33.9267 39.8 32.6733 39.5 31.66 38.9C30.66 38.3 29.9067 37.4867 29.4 36.46C28.8933 35.4333 28.64 34.2667 28.64 32.96C28.64 30.9333 29.1933 29.3267 30.3 28.14C31.4067 26.94 32.88 26.34 34.72 26.34C35.1733 26.34 35.6733 26.3867 36.22 26.48C36.7667 26.56 37.36 26.7133 38 26.94C38.6533 27.1667 39.3533 27.4933 40.1 27.92L40.46 24.12C39.94 23.8267 39.34 23.5733 38.66 23.36C37.98 23.1333 37.2533 22.96 36.48 22.84C35.72 22.7067 34.9533 22.64 34.18 22.64C32.0333 22.64 30.22 23.0933 28.74 24C27.2733 24.9067 26.16 26.1467 25.4 27.72C24.6533 29.2933 24.28 31.0733 24.28 33.06C24.28 35.0333 24.68 36.8 25.48 38.36C26.28 39.92 27.44 41.1533 28.96 42.06ZM48.5484 42.1C50.1218 43.0067 52.1284 43.46 54.5684 43.46C55.5018 43.46 56.3751 43.4 57.1884 43.28C58.0151 43.1733 58.7684 43.02 59.4484 42.82C60.1284 42.62 60.7218 42.3867 61.2284 42.12L61.0684 38.4C60.4418 38.7333 59.7751 39.0067 59.0684 39.22C58.3618 39.4333 57.6551 39.5933 56.9484 39.7C56.2551 39.7933 55.6151 39.84 55.0284 39.84C53.4951 39.84 52.2218 39.5667 51.2084 39.02C50.2084 38.4733 49.4618 37.6933 48.9684 36.68C48.5816 35.8633 48.3506 34.9166 48.2755 33.84H61.4284C61.4951 33.44 61.5351 33.04 61.5484 32.64C61.5751 32.2267 61.5884 31.7667 61.5884 31.26C61.5884 29.3667 61.2551 27.78 60.5884 26.5C59.9218 25.22 58.9684 24.26 57.7284 23.62C56.4884 22.9667 55.0084 22.64 53.2884 22.64C51.3018 22.64 49.6084 23.08 48.2084 23.96C46.8084 24.8267 45.7418 26.04 45.0084 27.6C44.2884 29.16 43.9284 30.9467 43.9284 32.96C43.9284 35 44.3018 36.8067 45.0484 38.38C45.8084 39.9533 46.9751 41.1933 48.5484 42.1ZM57.7641 30.7734L48.357 30.8872C48.4575 30.2219 48.628 29.6061 48.8684 29.04C49.2951 28.0667 49.8884 27.3 50.6484 26.74C51.4084 26.18 52.3018 25.9 53.3284 25.9C54.6484 25.9 55.7151 26.3533 56.5284 27.26C57.3063 28.1006 57.7182 29.2717 57.7641 30.7734ZM65.3222 38.72C65.1755 40.12 65.0222 41.5467 64.8622 43H68.7622C68.9222 41.56 69.0755 40.12 69.2222 38.68L69.7022 34.32L70.2822 28.92H70.6422L72.9822 34.82C73.5155 36.1667 74.0489 37.52 74.5822 38.88C75.1289 40.24 75.6755 41.6133 76.2222 43H79.2622C79.7955 41.6133 80.3222 40.2333 80.8422 38.86C81.3755 37.4867 81.9022 36.1133 82.4222 34.74L84.6622 28.92H85.0022L85.5822 34.4C85.7289 35.8133 85.8755 37.2467 86.0222 38.7C86.1822 40.14 86.3422 41.5733 86.5022 43H90.5222C90.3622 41.5733 90.2022 40.1533 90.0422 38.74C89.8822 37.3133 89.7289 35.9333 89.5822 34.6L89.2822 31.84C89.1222 30.4133 88.9555 28.96 88.7822 27.48C88.6222 25.9867 88.4622 24.5333 88.3022 23.12H83.7022C83.2089 24.2933 82.7155 25.48 82.2222 26.68C81.7422 27.88 81.2555 29.0867 80.7622 30.3L77.9222 37.26H77.5622L74.6822 30.3C74.2022 29.1133 73.7089 27.92 73.2022 26.72C72.7089 25.5067 72.2155 24.3067 71.7222 23.12H67.0422C66.8822 24.56 66.7222 26.0133 66.5622 27.48C66.4022 28.9333 66.2422 30.38 66.0822 31.82L65.7822 34.54C65.6355 35.9267 65.4822 37.32 65.3222 38.72ZM98.3922 42.1C99.9655 43.0067 101.972 43.46 104.412 43.46C105.346 43.46 106.219 43.4 107.032 43.28C107.859 43.1733 108.612 43.02 109.292 42.82C109.972 42.62 110.566 42.3867 111.072 42.12L110.912 38.4C110.286 38.7333 109.619 39.0067 108.912 39.22C108.206 39.4333 107.499 39.5933 106.792 39.7C106.099 39.7933 105.459 39.84 104.872 39.84C103.339 39.84 102.066 39.5667 101.052 39.02C100.052 38.4733 99.3055 37.6933 98.8122 36.68C98.4253 35.8633 98.1943 34.9166 98.1193 33.84H111.272C111.339 33.44 111.379 33.04 111.392 32.64C111.419 32.2267 111.432 31.7667 111.432 31.26C111.432 29.3667 111.099 27.78 110.432 26.5C109.766 25.22 108.812 24.26 107.572 23.62C106.332 22.9667 104.852 22.64 103.132 22.64C101.146 22.64 99.4522 23.08 98.0522 23.96C96.6522 24.8267 95.5855 26.04 94.8522 27.6C94.1322 29.16 93.7722 30.9467 93.7722 32.96C93.7722 35 94.1455 36.8067 94.8922 38.38C95.6522 39.9533 96.8189 41.1933 98.3922 42.1ZM107.608 30.7734L98.2007 30.8872C98.3013 30.2219 98.4718 29.6061 98.7122 29.04C99.1389 28.0667 99.7322 27.3 100.492 26.74C101.252 26.18 102.146 25.9 103.172 25.9C104.492 25.9 105.559 26.3533 106.372 27.26C107.15 28.1006 107.562 29.2717 107.608 30.7734ZM115.926 38.78V43H120.406C121.206 41.6933 122.006 40.38 122.806 39.06L125.246 35.06L128.906 29.06H129.226V34.42V38.84V43H133.326V38.78V34.28V32.28V28.92V25.98V23.12H128.866C128.079 24.4 127.286 25.7 126.486 27.02C125.686 28.3267 124.879 29.64 124.066 30.96L120.346 37.04H120.046V31.76V28.54V25.72V22.98L115.926 23.12V25.98V28.92V32.28V34.28V38.78ZM119.226 18.54C120.399 19.7533 122.193 20.36 124.606 20.36C127.073 20.36 128.879 19.7533 130.026 18.54C131.186 17.3267 131.773 15.6733 131.786 13.58H128.286C128.286 14.4333 128.159 15.1667 127.906 15.78C127.653 16.3933 127.253 16.86 126.706 17.18C126.173 17.5 125.473 17.66 124.606 17.66C123.326 17.66 122.393 17.3 121.806 16.58C121.233 15.8467 120.946 14.8 120.946 13.44L117.446 13.58C117.459 15.6733 118.053 17.3267 119.226 18.54ZM139.012 38.78V43H143.232V38.78V34.68H152.012V38.78V43H156.232V38.78V34.28V32.28V28.9V25.96V23.12H152.012V25.96V28.9V31.3H143.232V28.84V25.86V22.96L139.012 23.12V25.96V28.9V32.28V34.28V38.78ZM163.822 42.74C164.716 43.1933 165.729 43.42 166.863 43.42C167.836 43.42 168.716 43.2667 169.503 42.96C170.303 42.6533 170.989 42.2667 171.562 41.8C172.149 41.3333 172.636 40.8533 173.023 40.36H173.402L173.643 43H177.503V39.84V36.96V34.56V31.92V29.54C177.503 27.9133 177.202 26.5933 176.602 25.58C176.003 24.5533 175.143 23.8067 174.023 23.34C172.902 22.8733 171.556 22.64 169.982 22.64C169.196 22.64 168.423 22.68 167.663 22.76C166.902 22.84 166.163 22.96 165.443 23.12C164.736 23.2667 164.076 23.4333 163.462 23.62C162.849 23.8067 162.296 24 161.803 24.2L162.042 28C162.709 27.6933 163.356 27.4333 163.982 27.22C164.622 26.9933 165.229 26.8067 165.803 26.66C166.389 26.5 166.943 26.3867 167.462 26.32C167.996 26.2533 168.489 26.22 168.943 26.22C169.809 26.22 170.583 26.3267 171.262 26.54C171.956 26.7533 172.489 27.1533 172.863 27.74C173.249 28.3267 173.416 29.1733 173.363 30.28L167.462 31.2C166.676 31.32 165.896 31.5133 165.122 31.78C164.349 32.0467 163.649 32.42 163.023 32.9C162.396 33.38 161.889 34 161.503 34.76C161.129 35.5067 160.943 36.4333 160.943 37.54C160.943 38.7933 161.196 39.86 161.702 40.74C162.223 41.6067 162.929 42.2733 163.822 42.74ZM170.143 39.6C169.529 39.88 168.902 40.02 168.262 40.02C167.462 40.02 166.762 39.82 166.163 39.42C165.576 39.02 165.283 38.3333 165.283 37.36C165.283 36.7467 165.409 36.22 165.663 35.78C165.929 35.3267 166.296 34.96 166.762 34.68C167.229 34.4 167.789 34.2067 168.443 34.1C169.576 33.9 170.456 33.7333 171.083 33.6C171.709 33.4667 172.176 33.3467 172.482 33.24C172.803 33.1333 173.062 33.02 173.262 32.9V36.42C172.876 37.18 172.416 37.8267 171.883 38.36C171.349 38.8933 170.769 39.3067 170.143 39.6ZM183.084 40.08L181.044 43H185.784C186.384 42.12 186.99 41.2333 187.604 40.34C188.217 39.4333 188.824 38.5267 189.424 37.62L190.683 35.78H194.264V38.2V40.6V43H198.404V38.78V34.28V32.28V28.92V25.98V23.12H196.024H193.004H189.864C188.13 23.12 186.664 23.3267 185.464 23.74C184.277 24.14 183.37 24.78 182.744 25.66C182.13 26.5267 181.824 27.6867 181.824 29.14C181.824 30.3 182.057 31.3267 182.524 32.22C183.004 33.1 183.764 33.7933 184.804 34.3C185.353 34.5606 185.998 34.7524 186.737 34.8754L185.104 37.22C184.45 38.1533 183.777 39.1067 183.084 40.08ZM194.264 32.78V32.26V29.26V26.46H190.244C189.604 26.46 188.964 26.5467 188.324 26.72C187.697 26.88 187.177 27.1933 186.764 27.66C186.35 28.1267 186.144 28.8133 186.144 29.72C186.144 30.4667 186.284 31.0533 186.564 31.48C186.857 31.8933 187.23 32.1933 187.684 32.38C188.137 32.5533 188.617 32.6667 189.124 32.72C189.63 32.76 190.09 32.78 190.504 32.78H194.264ZM211.746 38.78V43H216.026V38.78V34.28V32.28V29.14V26.54H224.726V29.14V32.28V34.28V38.78V43H228.986V38.78V34.28V32.28V28.9V25.96V23.12H211.746V25.96V28.9V32.28V34.28V38.78ZM239.396 42.62C240.676 43.1933 242.169 43.48 243.876 43.48C245.969 43.48 247.769 43.02 249.276 42.1C250.796 41.1667 251.956 39.9067 252.756 38.32C253.556 36.7333 253.956 34.9467 253.956 32.96C253.956 31.4933 253.736 30.1333 253.296 28.88C252.856 27.6267 252.203 26.5333 251.336 25.6C250.483 24.6533 249.423 23.92 248.156 23.4C246.889 22.88 245.436 22.62 243.796 22.62C241.649 22.62 239.816 23.0733 238.296 23.98C236.776 24.8733 235.616 26.1 234.816 27.66C234.016 29.2067 233.616 30.9733 233.616 32.96C233.616 34.3467 233.829 35.6733 234.256 36.94C234.683 38.1933 235.323 39.3133 236.176 40.3C237.043 41.2733 238.116 42.0467 239.396 42.62ZM247.056 38.9C246.203 39.5533 245.136 39.88 243.856 39.88C242.549 39.88 241.456 39.5533 240.576 38.9C239.709 38.2333 239.056 37.3733 238.616 36.32C238.189 35.2667 237.976 34.1467 237.976 32.96C237.976 31.6933 238.196 30.5533 238.636 29.54C239.089 28.5133 239.749 27.7067 240.616 27.12C241.496 26.52 242.569 26.22 243.836 26.22C245.009 26.22 246.023 26.5 246.876 27.06C247.743 27.6067 248.409 28.3867 248.876 29.4C249.356 30.4 249.596 31.5867 249.596 32.96C249.596 34.1467 249.383 35.2667 248.956 36.32C248.543 37.3733 247.909 38.2333 247.056 38.9ZM275.668 39.56H278.668V41.88V44.16V46.3V48.46H274.988L274.824 43H259.752L259.588 48.46H255.868V46.3V44.16V41.88V39.56H257.966C258.262 39.2358 258.563 38.7958 258.868 38.24C259.254 37.56 259.594 36.6333 259.888 35.46C260.194 34.2733 260.401 32.7733 260.508 30.96C260.614 29.3867 260.701 27.9933 260.768 26.78C260.848 25.5533 260.921 24.3333 260.988 23.12H275.668V25.98V28.92V32.28V34.28V38.56V39.56ZM262.382 39.56H262.968H271.448V37.26V34.28V32.28V29.14V26.54H264.555C264.518 27.2734 264.475 28.0334 264.428 28.82C264.388 29.6867 264.341 30.6333 264.288 31.66C264.234 32.8333 264.108 33.9533 263.908 35.02C263.721 36.0733 263.461 37.0467 263.128 37.94C262.91 38.5225 262.662 39.0625 262.382 39.56ZM282.215 38.78V43H286.495V38.78V34.28V32.28V29.14V26.54H295.195V29.14V32.28V34.28V38.78V43H299.455V38.78V34.28V32.28V28.9V25.96V23.12H282.215V25.96V28.9V32.28V34.28V38.78ZM305.145 38.78V43H309.625C310.425 41.6933 311.225 40.38 312.025 39.06L314.465 35.06L318.125 29.06H318.445V34.42V38.84V43H322.545V38.78V34.28V32.28V28.92V25.98V23.12H318.085C317.298 24.4 316.505 25.7 315.705 27.02C314.905 28.3267 314.098 29.64 313.285 30.96L309.565 37.04H309.265V31.76V28.54V25.72V22.98L305.145 23.12V25.98V28.92V32.28V34.28V38.78ZM331.851 42.06C333.384 42.9533 335.244 43.4 337.431 43.4C338.311 43.4 339.117 43.3467 339.851 43.24C340.584 43.1333 341.244 42.9933 341.831 42.82C342.417 42.6333 342.937 42.4333 343.391 42.22L343.091 38.4C342.597 38.72 342.084 38.9867 341.551 39.2C341.031 39.4 340.497 39.5533 339.951 39.66C339.404 39.7533 338.857 39.8 338.311 39.8C336.817 39.8 335.564 39.5 334.551 38.9C333.551 38.3 332.797 37.4867 332.291 36.46C331.784 35.4333 331.531 34.2667 331.531 32.96C331.531 30.9333 332.084 29.3267 333.191 28.14C334.297 26.94 335.771 26.34 337.611 26.34C338.064 26.34 338.564 26.3867 339.111 26.48C339.657 26.56 340.251 26.7133 340.891 26.94C341.544 27.1667 342.244 27.4933 342.991 27.92L343.351 24.12C342.831 23.8267 342.231 23.5733 341.551 23.36C340.871 23.1333 340.144 22.96 339.371 22.84C338.611 22.7067 337.844 22.64 337.071 22.64C334.924 22.64 333.111 23.0933 331.631 24C330.164 24.9067 329.051 26.1467 328.291 27.72C327.544 29.2933 327.171 31.0733 327.171 33.06C327.171 35.0333 327.571 36.8 328.371 38.36C329.171 39.92 330.331 41.1533 331.851 42.06ZM347.879 38.78V43H352.159V39.08V35.04V34.48H353.159L356.159 37.78C356.946 38.6333 357.732 39.5 358.519 40.38C359.319 41.2467 360.112 42.12 360.899 43H366.299C365.219 41.8267 364.126 40.6467 363.019 39.46C361.912 38.2733 360.812 37.0867 359.719 35.9L356.929 32.7388L359.299 30.16C360.352 28.9867 361.412 27.8133 362.479 26.64C363.546 25.4667 364.619 24.2933 365.699 23.12H360.579C359.806 24.0133 359.026 24.92 358.239 25.84L355.879 28.56L353.319 31.52H352.159V27.24V22.96L347.879 23.12V25.92V28.78V32.12V34.28V38.78ZM371.713 42.74C372.606 43.1933 373.62 43.42 374.753 43.42C375.726 43.42 376.606 43.2667 377.393 42.96C378.193 42.6533 378.88 42.2667 379.453 41.8C380.04 41.3333 380.526 40.8533 380.913 40.36H381.293L381.533 43H385.393V39.84V36.96V34.56V31.92V29.54C385.393 27.9133 385.093 26.5933 384.493 25.58C383.893 24.5533 383.033 23.8067 381.913 23.34C380.793 22.8733 379.446 22.64 377.873 22.64C377.086 22.64 376.313 22.68 375.553 22.76C374.793 22.84 374.053 22.96 373.333 23.12C372.626 23.2667 371.966 23.4333 371.353 23.62C370.74 23.8067 370.186 24 369.693 24.2L369.933 28C370.6 27.6933 371.246 27.4333 371.873 27.22C372.513 26.9933 373.12 26.8067 373.693 26.66C374.28 26.5 374.833 26.3867 375.353 26.32C375.886 26.2533 376.38 26.22 376.833 26.22C377.7 26.22 378.473 26.3267 379.153 26.54C379.846 26.7533 380.38 27.1533 380.753 27.74C381.14 28.3267 381.306 29.1733 381.253 30.28L375.353 31.2C374.566 31.32 373.786 31.5133 373.013 31.78C372.24 32.0467 371.54 32.42 370.913 32.9C370.286 33.38 369.78 34 369.393 34.76C369.02 35.5067 368.833 36.4333 368.833 37.54C368.833 38.7933 369.086 39.86 369.593 40.74C370.113 41.6067 370.82 42.2733 371.713 42.74ZM378.033 39.6C377.42 39.88 376.793 40.02 376.153 40.02C375.353 40.02 374.653 39.82 374.053 39.42C373.466 39.02 373.173 38.3333 373.173 37.36C373.173 36.7467 373.3 36.22 373.553 35.78C373.82 35.3267 374.186 34.96 374.653 34.68C375.12 34.4 375.68 34.2067 376.333 34.1C377.466 33.9 378.346 33.7333 378.973 33.6C379.6 33.4667 380.066 33.3467 380.373 33.24C380.693 33.1333 380.953 33.02 381.153 32.9V36.42C380.766 37.18 380.306 37.8267 379.773 38.36C379.24 38.8933 378.66 39.3067 378.033 39.6Z" fill="white"/>
</svg>
