<svg width="145" height="213" viewBox="0 0 145 213" fill="none" xmlns="http://www.w3.org/2000/svg">
<path fill-rule="evenodd" clip-rule="evenodd" d="M66.4259 1.76152C70.494 -0.587173 75.506 -0.587175 79.5741 1.76152L124.426 27.657C128.494 30.0057 131 34.3462 131 39.0435V90.8346C131 95.5319 128.494 99.8724 124.426 102.221L79.5741 128.117C75.506 130.465 70.494 130.465 66.4259 128.117L21.574 102.221C17.506 99.8724 15 95.5319 15 90.8346V39.0435C15 34.3462 17.506 30.0057 21.574 27.657L66.4259 1.76152ZM27.4095 87.8555C27.6161 85.794 27.8141 83.7474 28.0035 81.7158C28.2101 79.6948 28.4081 77.6888 28.5975 75.6977L28.959 71.7859C29.1656 69.7244 29.3722 67.6426 29.5789 65.5405C29.7855 63.4385 29.9835 61.3513 30.1729 59.2791L37.3783 63.7625C37.9637 65.8099 38.5491 67.8775 39.1345 69.9654C39.7199 72.0533 40.2967 74.1055 40.8648 76.1218L44.2222 88.127L44.7387 88.4484L48.0445 80.5892C48.6299 79.25 49.2066 77.9056 49.7748 76.5557C50.343 75.2059 50.9112 73.8661 51.4793 72.5366L58.5299 76.9236C58.7365 79.2016 58.9431 81.5405 59.1497 83.9403C59.3735 86.3507 59.5887 88.7051 59.7953 91.0035L60.2085 95.4886C60.3979 97.6343 60.5959 99.8462 60.8025 102.124C61.0092 104.402 61.2158 106.701 61.4224 109.019L55.2499 105.179C55.0778 103.023 54.897 100.853 54.7076 98.6664C54.5354 96.4909 54.3546 94.3303 54.1652 92.1846L53.4679 83.9334L52.9773 83.6281L50.4205 90.3412L48.6126 95.1173C48.01 96.7093 47.4074 98.3115 46.8048 99.9238L42.1561 97.0313C41.5191 94.6476 40.8821 92.2843 40.245 89.9411C39.6252 87.6087 39.0054 85.2865 38.3855 82.9744L35.6738 72.8614L35.1831 72.5561L34.4858 79.7874L33.9176 85.6999L33.3495 91.5516L27.4095 87.8555ZM93.9256 103.898C95.1656 103.901 96.5747 103.412 98.1529 102.43C99.5245 101.576 100.746 100.562 101.817 99.3867C102.906 98.1776 103.846 96.9513 104.635 95.708C105.424 94.4424 106.082 93.2366 106.608 92.0905L107.2 91.7223L107.622 95.7743L113.963 91.8288V86.4183V81.4725V77.8213V73.5062V69.5563C113.963 66.8123 113.531 64.8572 112.667 63.6911C111.803 62.5028 110.553 62.03 108.919 62.2726C107.303 62.4813 105.349 63.2988 103.057 64.7251C101.873 65.4616 100.718 66.258 99.5902 67.1144C98.4817 67.9369 97.4108 68.8024 96.3774 69.7109C95.3441 70.5973 94.3859 71.4702 93.5028 72.3294C92.6385 73.177 91.8588 73.972 91.1637 74.7143L91.5019 81.8395C92.4225 80.7577 93.3243 79.7651 94.2074 78.8616C95.0904 77.9359 95.9359 77.1 96.7438 76.3539C97.5705 75.5961 98.3502 74.9339 99.083 74.3674C99.8345 73.767 100.53 73.268 101.168 72.8705C102.371 72.1223 103.432 71.6278 104.353 71.3869C105.274 71.1238 105.978 71.2608 106.467 71.7977C106.974 72.323 107.2 73.3776 107.143 74.9617L99.1111 81.3535C98.0026 82.2424 96.9035 83.2472 95.8138 84.3679C94.7428 85.4768 93.7565 86.7212 92.8546 88.1011C91.9716 89.4472 91.2576 90.9315 90.7127 92.554C90.1679 94.1544 89.8954 95.8729 89.8954 97.7096C89.8954 99.7896 90.2524 101.349 90.9664 102.387C91.6991 103.392 92.6855 103.896 93.9256 103.898ZM103.085 92.0918C102.315 93.0137 101.535 93.7201 100.746 94.2111C99.7875 94.8074 98.9327 95.0516 98.1811 94.9439C97.4484 94.8024 97.082 94.0124 97.082 92.574C97.082 91.711 97.2323 90.854 97.5329 90.0031C97.8335 89.1522 98.2563 88.347 98.8011 87.5876C99.3648 86.8164 100.051 86.091 100.858 85.4112C102.286 84.2129 103.395 83.2687 104.184 82.5786C104.973 81.8884 105.565 81.3431 105.96 80.9427C106.373 80.5085 106.702 80.1158 106.946 79.7647V84.976C106.476 86.3747 105.903 87.6828 105.227 88.9003C104.569 90.1061 103.855 91.1699 103.085 92.0918ZM24.8729 32.6801C23.7886 33.3148 23.7886 34.8821 24.8729 35.5168L68.0059 60.7655C71.0828 62.5667 74.8923 62.5667 77.9691 60.7655L121.102 35.5168C122.186 34.8821 122.186 33.3148 121.102 32.6801L77.9691 7.43132C74.8923 5.63021 71.0828 5.63021 68.0059 7.43132L24.8729 32.6801Z" fill="url(#paint0_radial_225_5747)"/>
<path opacity="0.15" fill-rule="evenodd" clip-rule="evenodd" d="M75.9422 60.4189L75.9422 131.912H71.0117L71.0117 60.4189H75.9422Z" fill="url(#paint1_linear_225_5747)"/>
<path d="M58.7753 42.4436C93.5613 51.3326 107.056 29.2281 81.9977 27.1162C78.7486 10.3563 45.3621 19.1996 58.7753 42.4436Z" fill="white"/>
<path d="M58.7753 42.4436C93.5613 51.3326 107.056 29.2281 81.9977 27.1162C78.7486 10.3563 45.3621 19.1996 58.7753 42.4436Z" fill="url(#paint2_radial_225_5747)"/>
<path d="M37.3115 176C37.472 174.556 37.6258 173.125 37.7729 171.707C37.9334 170.29 38.0872 168.885 38.2343 167.495L38.5151 164.767C38.6756 163.322 38.8361 161.865 38.9965 160.394C39.157 158.923 39.3108 157.465 39.4579 156.021H45.0546C45.5093 157.131 45.9639 158.254 46.4186 159.391C46.8733 160.527 47.3213 161.644 47.7626 162.741L50.3704 169.28H50.7716L53.3392 162.741C53.7939 161.617 54.2419 160.494 54.6832 159.371C55.1245 158.247 55.5659 157.131 56.0072 156.021H61.4835C61.6439 157.438 61.8044 158.896 61.9649 160.394C62.1387 161.891 62.3059 163.356 62.4664 164.787L62.7873 167.575C62.9344 168.912 63.0882 170.29 63.2487 171.707C63.4092 173.125 63.5697 174.556 63.7302 176H58.9359C58.8022 174.649 58.6617 173.292 58.5146 171.928C58.3809 170.564 58.2405 169.213 58.0934 167.876L57.5518 162.72H57.1706L55.1847 168.197C54.7167 169.494 54.2486 170.791 53.7805 172.088C53.3125 173.386 52.8444 174.689 52.3764 176H48.7656C48.2708 174.689 47.776 173.392 47.2812 172.108C46.7998 170.825 46.3183 169.547 45.8369 168.277L43.7306 162.72H43.3495L42.8079 167.776C42.6608 169.153 42.5137 170.53 42.3666 171.908C42.2195 173.272 42.0724 174.636 41.9253 176H37.3115ZM76.27 176.501C74.5047 176.501 72.9668 176.221 71.6562 175.659C70.3457 175.084 69.2558 174.302 68.3865 173.312C67.5173 172.322 66.8687 171.192 66.4407 169.922C66.0128 168.651 65.7988 167.321 65.7988 165.93C65.7988 163.937 66.2 162.159 67.0024 160.594C67.8048 159.016 68.9749 157.772 70.5128 156.863C72.0641 155.954 73.9497 155.499 76.1697 155.499C77.8814 155.499 79.3792 155.766 80.663 156.301C81.9602 156.823 83.0435 157.558 83.9127 158.508C84.7953 159.457 85.4573 160.567 85.8986 161.838C86.3399 163.095 86.5606 164.459 86.5606 165.93C86.5606 167.936 86.1527 169.735 85.337 171.326C84.5346 172.917 83.3644 174.181 81.8265 175.117C80.2886 176.04 78.4364 176.501 76.27 176.501ZM76.2499 172.289C77.4 172.289 78.3495 171.988 79.0984 171.386C79.8607 170.771 80.429 169.982 80.8035 169.019C81.1779 168.056 81.3651 167.027 81.3651 165.93C81.3651 164.646 81.1512 163.543 80.7232 162.62C80.3087 161.684 79.7136 160.969 78.9379 160.474C78.1623 159.966 77.2596 159.712 76.2299 159.712C75.0931 159.712 74.1303 159.992 73.3413 160.554C72.5656 161.102 71.9772 161.845 71.576 162.781C71.1882 163.717 70.9943 164.767 70.9943 165.93C70.9943 167.027 71.1882 168.056 71.576 169.019C71.9638 169.982 72.5456 170.771 73.3212 171.386C74.1102 171.988 75.0864 172.289 76.2499 172.289ZM88.3722 176C89.0409 175.024 89.7029 174.041 90.3582 173.051C91.0134 172.062 91.6553 171.099 92.2839 170.163L95.012 166.091L96.4563 168.117C94.7312 168.117 93.3337 167.869 92.2638 167.374C91.2073 166.88 90.4317 166.177 89.9369 165.268C89.4555 164.359 89.2147 163.302 89.2147 162.099C89.2147 160.614 89.5357 159.431 90.1776 158.548C90.8329 157.665 91.7757 157.024 93.006 156.622C94.2497 156.221 95.7609 156.021 97.5395 156.021C98.6361 156.021 99.7394 156.021 100.849 156.021C101.973 156.021 103.029 156.021 104.019 156.021C105.022 156.021 105.871 156.021 106.566 156.021C106.566 156.983 106.566 157.933 106.566 158.869C106.566 159.805 106.566 160.788 106.566 161.818C106.566 162.848 106.566 164.004 106.566 165.288V167.294C106.566 168.952 106.566 170.457 106.566 171.808C106.566 173.145 106.566 174.542 106.566 176H101.612C101.612 175.198 101.612 174.422 101.612 173.673C101.612 172.924 101.612 172.155 101.612 171.366C101.612 170.564 101.612 169.715 101.612 168.819V165.268C101.612 164.278 101.612 163.349 101.612 162.48C101.612 161.597 101.612 160.735 101.612 159.892H98.021C97.4325 159.892 96.8575 159.972 96.2958 160.133C95.7342 160.28 95.2661 160.567 94.8916 160.995C94.5306 161.423 94.35 162.032 94.35 162.821C94.35 163.489 94.4771 164.011 94.7312 164.385C94.9986 164.76 95.333 165.034 95.7342 165.208C96.1487 165.382 96.5767 165.489 97.018 165.529C97.4727 165.569 97.8805 165.589 98.2416 165.589H102.374V168.999H97.018L99.5455 167.274L97.359 170.664C96.7973 171.56 96.229 172.456 95.6539 173.352C95.0922 174.235 94.5239 175.117 93.9488 176H88.3722ZM7.79383 212.461C6.67049 212.461 5.6675 212.227 4.78487 211.759C3.90225 211.291 3.20016 210.616 2.6786 209.733C2.17043 208.837 1.91634 207.761 1.91634 206.504C1.91634 205.394 2.11025 204.458 2.49807 203.695C2.88589 202.92 3.39407 202.291 4.02261 201.81C4.66452 201.315 5.36661 200.934 6.12887 200.666C6.90452 200.399 7.68684 200.205 8.47586 200.085L14.1929 199.242C14.233 198.306 14.0725 197.584 13.7114 197.076C13.3637 196.567 12.8622 196.22 12.207 196.032C11.5517 195.832 10.7961 195.732 9.94022 195.732C9.48553 195.732 8.99072 195.772 8.4558 195.852C7.93425 195.919 7.37926 196.026 6.79084 196.173C6.2158 196.32 5.61401 196.507 4.98547 196.735C4.35693 196.949 3.71502 197.209 3.05974 197.517L2.81902 193.084C3.31383 192.896 3.86881 192.709 4.48398 192.522C5.11252 192.335 5.79455 192.168 6.53007 192.021C7.26559 191.86 8.02786 191.74 8.81687 191.659C9.61926 191.566 10.4417 191.519 11.2842 191.519C12.9157 191.519 14.3065 191.76 15.4566 192.241C16.6201 192.709 17.5094 193.465 18.1246 194.508C18.7397 195.538 19.0473 196.882 19.0473 198.54C19.0473 199.182 19.0473 199.978 19.0473 200.927C19.0473 201.877 19.0473 202.746 19.0473 203.535V205.741C19.0473 206.718 19.0473 207.714 19.0473 208.73C19.0473 209.733 19.0473 210.823 19.0473 212H14.5339L14.233 209.392H13.8117C13.4373 209.887 12.9692 210.368 12.4076 210.837C11.8459 211.291 11.1772 211.679 10.4016 212C9.63932 212.308 8.77007 212.461 7.79383 212.461ZM9.63932 208.469C10.201 208.469 10.756 208.336 11.3043 208.068C11.8526 207.801 12.3608 207.426 12.8288 206.945C13.3102 206.464 13.7181 205.888 14.0525 205.22V202.07C13.8786 202.191 13.6446 202.304 13.3504 202.411C13.0695 202.505 12.6483 202.612 12.0866 202.732C11.5249 202.853 10.7359 203.007 9.71956 203.194C9.14452 203.301 8.6564 203.481 8.2552 203.735C7.86738 203.989 7.56649 204.317 7.35252 204.718C7.13855 205.12 7.03156 205.581 7.03156 206.102C7.03156 206.972 7.29234 207.587 7.81389 207.948C8.34881 208.296 8.95729 208.469 9.63932 208.469ZM22.9192 212C22.9192 210.556 22.9192 209.158 22.9192 207.808C22.9192 206.457 22.9192 204.952 22.9192 203.294V201.288C22.9192 200.004 22.9192 198.848 22.9192 197.818C22.9192 196.775 22.9192 195.792 22.9192 194.869C22.9192 193.933 22.9192 192.983 22.9192 192.021H40.8525C40.8525 192.983 40.8525 193.933 40.8525 194.869C40.8525 195.792 40.8525 196.775 40.8525 197.818C40.8525 198.848 40.8525 200.004 40.8525 201.288V203.294C40.8525 204.952 40.8525 206.457 40.8525 207.808C40.8525 209.158 40.8525 210.556 40.8525 212H35.7574C35.7574 210.556 35.7574 209.158 35.7574 207.808C35.7574 206.457 35.7574 204.952 35.7574 203.294V201.288C35.7574 200.111 35.7574 199.055 35.7574 198.119C35.7574 197.183 35.7574 196.293 35.7574 195.451C35.7574 194.608 35.7574 193.732 35.7574 192.823L37.8636 196.053H25.9281L28.0143 192.823C28.0143 193.732 28.0143 194.608 28.0143 195.451C28.0143 196.293 28.0143 197.183 28.0143 198.119C28.0143 199.055 28.0143 200.111 28.0143 201.288V203.294C28.0143 204.952 28.0143 206.457 28.0143 207.808C28.0143 209.158 28.0143 210.556 28.0143 212H22.9192ZM49.6857 212C49.6857 210.556 49.6857 209.158 49.6857 207.808C49.6857 206.457 49.6857 204.952 49.6857 203.294V201.288C49.6857 200.111 49.6857 199.055 49.6857 198.119C49.6857 197.183 49.6857 196.293 49.6857 195.451C49.6857 194.608 49.6857 193.732 49.6857 192.823L51.3105 196.053H50.448C49.3246 196.053 48.1612 196.053 46.9576 196.053C45.7674 196.053 44.5905 196.053 43.4271 196.053V192.021H61.0194V196.053C59.8693 196.053 58.6925 196.053 57.4889 196.053C56.2987 196.053 55.1352 196.053 53.9985 196.053H53.156L54.7809 192.823C54.7809 193.732 54.7809 194.608 54.7809 195.451C54.7809 196.293 54.7809 197.183 54.7809 198.119C54.7809 199.055 54.7809 200.111 54.7809 201.288V203.294C54.7809 204.952 54.7809 206.457 54.7809 207.808C54.7809 209.158 54.7809 210.556 54.7809 212H49.6857ZM73.2822 212.501C70.768 212.501 68.7086 212.047 67.1038 211.137C65.499 210.228 64.3155 208.978 63.5532 207.386C62.7909 205.795 62.4098 203.976 62.4098 201.93C62.4098 199.897 62.7709 198.099 63.493 196.534C64.2286 194.956 65.3051 193.726 66.7227 192.843C68.1402 191.96 69.8787 191.519 71.9382 191.519C73.7168 191.519 75.2347 191.847 76.4917 192.502C77.7622 193.144 78.7384 194.113 79.4204 195.411C80.1025 196.694 80.4435 198.313 80.4435 200.265C80.4435 200.787 80.4301 201.255 80.4034 201.669C80.39 202.084 80.3499 202.492 80.283 202.893L75.8498 201.108C75.8766 200.92 75.8966 200.733 75.91 200.546C75.9234 200.345 75.9301 200.158 75.9301 199.984C75.9301 198.513 75.5623 197.363 74.8268 196.534C74.0912 195.691 73.1418 195.27 71.9783 195.27C71.0957 195.27 70.32 195.524 69.6514 196.032C68.9827 196.527 68.4545 197.223 68.0667 198.119C67.6788 199.015 67.4849 200.051 67.4849 201.228V202.01C67.4849 203.307 67.7123 204.424 68.1669 205.36C68.6216 206.283 69.3237 206.998 70.2732 207.507C71.2227 208.001 72.4196 208.249 73.8639 208.249C74.4256 208.249 75.0541 208.202 75.7495 208.108C76.4583 208.001 77.1738 207.841 77.8959 207.627C78.6181 207.413 79.2934 207.139 79.9219 206.805L80.0824 211.178C79.5742 211.432 78.9791 211.659 78.2971 211.86C77.6151 212.06 76.8528 212.214 76.0103 212.321C75.1678 212.441 74.2584 212.501 73.2822 212.501ZM64.4158 202.893V199.703L77.2741 199.483L80.283 200.626V202.893H64.4158ZM95.4218 212C95.4218 210.823 95.4218 209.593 95.4218 208.309C95.4218 207.025 95.4218 205.768 95.4218 204.538C94.9538 204.752 94.4456 204.946 93.8973 205.12C93.3624 205.28 92.7873 205.414 92.1721 205.521C91.5704 205.614 90.9151 205.661 90.2063 205.661C88.7353 205.661 87.4514 205.434 86.3548 204.979C85.2716 204.524 84.4291 203.829 83.8273 202.893C83.2389 201.957 82.9447 200.773 82.9447 199.342C82.9447 198.339 82.9447 197.437 82.9447 196.634C82.9447 195.819 82.9447 195.036 82.9447 194.287C82.9447 193.538 82.9447 192.783 82.9447 192.021L87.9797 191.86C87.9797 192.876 87.9797 193.906 87.9797 194.949C87.9797 195.979 87.9797 197.129 87.9797 198.4C87.9797 199.683 88.2806 200.579 88.8824 201.088C89.4841 201.596 90.4537 201.85 91.791 201.85C92.1788 201.85 92.58 201.823 92.9946 201.77C93.4225 201.703 93.8438 201.602 94.2584 201.469C94.6863 201.322 95.0741 201.141 95.4218 200.927V200.024C95.4218 198.928 95.4218 197.938 95.4218 197.056C95.4218 196.173 95.4218 195.33 95.4218 194.528C95.4218 193.712 95.4218 192.876 95.4218 192.021H100.457C100.457 192.983 100.457 193.933 100.457 194.869C100.457 195.792 100.457 196.775 100.457 197.818C100.457 198.848 100.457 200.004 100.457 201.288V203.294C100.457 204.952 100.457 206.457 100.457 207.808C100.457 209.158 100.457 210.556 100.457 212H95.4218ZM104.846 212C104.846 210.556 104.846 209.158 104.846 207.808C104.846 206.457 104.846 204.952 104.846 203.294V201.088C104.846 199.804 104.846 198.66 104.846 197.657C104.846 196.654 104.846 195.705 104.846 194.809C104.846 193.913 104.846 192.983 104.846 192.021L109.941 191.86C109.941 193.291 109.941 194.709 109.941 196.113C109.941 197.504 109.941 198.961 109.941 200.486V204.257C109.941 205.648 109.941 206.958 109.941 208.189C109.941 209.406 109.941 210.676 109.941 212H104.846ZM117.784 212C117.102 211.144 116.407 210.295 115.698 209.452C115.003 208.597 114.301 207.754 113.592 206.925L110.944 203.715H109.48V200.265H111.084L113.371 197.356C114.08 196.474 114.782 195.584 115.477 194.688C116.186 193.792 116.888 192.903 117.584 192.021H123.582C122.565 193.211 121.549 194.401 120.532 195.591C119.516 196.781 118.506 197.965 117.503 199.142L114.495 202.652L114.274 200.345L117.905 204.779C118.948 205.982 119.984 207.192 121.014 208.409C122.057 209.613 123.093 210.81 124.123 212H117.784ZM131.409 212.461C130.285 212.461 129.282 212.227 128.4 211.759C127.517 211.291 126.815 210.616 126.293 209.733C125.785 208.837 125.531 207.761 125.531 206.504C125.531 205.394 125.725 204.458 126.113 203.695C126.501 202.92 127.009 202.291 127.637 201.81C128.279 201.315 128.981 200.934 129.744 200.666C130.519 200.399 131.302 200.205 132.091 200.085L137.808 199.242C137.848 198.306 137.687 197.584 137.326 197.076C136.979 196.567 136.477 196.22 135.822 196.032C135.166 195.832 134.411 195.732 133.555 195.732C133.1 195.732 132.606 195.772 132.071 195.852C131.549 195.919 130.994 196.026 130.406 196.173C129.831 196.32 129.229 196.507 128.6 196.735C127.972 196.949 127.33 197.209 126.675 197.517L126.434 193.084C126.929 192.896 127.484 192.709 128.099 192.522C128.727 192.335 129.409 192.168 130.145 192.021C130.88 191.86 131.643 191.74 132.432 191.659C133.234 191.566 134.056 191.519 134.899 191.519C136.531 191.519 137.921 191.76 139.071 192.241C140.235 192.709 141.124 193.465 141.739 194.508C142.355 195.538 142.662 196.882 142.662 198.54C142.662 199.182 142.662 199.978 142.662 200.927C142.662 201.877 142.662 202.746 142.662 203.535V205.741C142.662 206.718 142.662 207.714 142.662 208.73C142.662 209.733 142.662 210.823 142.662 212H138.149L137.848 209.392H137.427C137.052 209.887 136.584 210.368 136.022 210.837C135.461 211.291 134.792 211.679 134.016 212C133.254 212.308 132.385 212.461 131.409 212.461ZM133.254 208.469C133.816 208.469 134.371 208.336 134.919 208.068C135.467 207.801 135.976 207.426 136.444 206.945C136.925 206.464 137.333 205.888 137.667 205.22V202.07C137.493 202.191 137.259 202.304 136.965 202.411C136.684 202.505 136.263 202.612 135.701 202.732C135.14 202.853 134.351 203.007 133.334 203.194C132.759 203.301 132.271 203.481 131.87 203.735C131.482 203.989 131.181 204.317 130.967 204.718C130.753 205.12 130.646 205.581 130.646 206.102C130.646 206.972 130.907 207.587 131.429 207.948C131.964 208.296 132.572 208.469 133.254 208.469Z" fill="white"/>
<defs>
<radialGradient id="paint0_radial_225_5747" cx="0" cy="0" r="1" gradientUnits="userSpaceOnUse" gradientTransform="translate(72.9999 28.5618) rotate(90) scale(105.448 91.6778)">
<stop offset="0.75" stop-color="white"/>
<stop offset="1" stop-color="white" stop-opacity="0.3"/>
</radialGradient>
<linearGradient id="paint1_linear_225_5747" x1="75.9742" y1="60.419" x2="75.9742" y2="131.912" gradientUnits="userSpaceOnUse">
<stop stop-color="#197FF2" stop-opacity="0"/>
<stop offset="0.51" stop-color="#197FF2"/>
<stop offset="1" stop-color="#197FF2" stop-opacity="0"/>
</linearGradient>
<radialGradient id="paint2_radial_225_5747" cx="0" cy="0" r="1" gradientUnits="userSpaceOnUse" gradientTransform="translate(71.7891 33.8129) rotate(146.113) scale(15.5777 16.1984)">
<stop offset="0.456111" stop-color="#FF6065"/>
<stop offset="1" stop-color="#FF6065" stop-opacity="0.8"/>
</radialGradient>
</defs>
</svg>
