<svg width="25" height="24" viewBox="0 0 25 24" fill="none" xmlns="http://www.w3.org/2000/svg">
<path d="M11.875 13H16.875M8.875 13H8.88398M13.875 17H8.875M16.875 17H16.866" stroke="#818499" stroke-width="2" stroke-linecap="round" stroke-linejoin="round"/>
<path d="M18.875 2V4M6.875 2V4" stroke="#818499" stroke-width="2" stroke-linecap="round" stroke-linejoin="round"/>
<path d="M3.375 12.2432C3.375 7.88594 3.375 5.70728 4.62712 4.35364C5.87924 3 7.89449 3 11.925 3H13.825C17.8555 3 19.8708 3 21.1229 4.35364C22.375 5.70728 22.375 7.88594 22.375 12.2432V12.7568C22.375 17.1141 22.375 19.2927 21.1229 20.6464C19.8708 22 17.8555 22 13.825 22H11.925C7.89449 22 5.87924 22 4.62712 20.6464C3.375 19.2927 3.375 17.1141 3.375 12.7568V12.2432Z" stroke="#818499" stroke-width="2" stroke-linecap="round" stroke-linejoin="round"/>
<path d="M3.875 8H21.875" stroke="#818499" stroke-width="2" stroke-linecap="round" stroke-linejoin="round"/>
</svg>
